M48
; DRILL file {KiCad 7.0.10} date Mon Feb 26 06:51:56 2024
; FORMAT={-:-/ absolute / metric / decimal}
; #@! TF.CreationDate,2024-02-26T06:51:56+09:00
; #@! TF.GenerationSoftware,Kicad,Pcbnew,7.0.10
; #@! TF.FileFunction,MixedPlating,1,2
FMAT,2
METRIC
; #@! TA.AperFunction,Plated,PTH,ViaDrill
T1C0.300
; #@! TA.AperFunction,Plated,PTH,ComponentDrill
T2C0.800
; #@! TA.AperFunction,NonPlated,NPTH,ComponentDrill
T3C3.200
%
G90
G05
T1
X66.548Y-106.934
X66.548Y-112.395
X67.818Y-105.664
X67.818Y-112.395
X69.088Y-104.394
X69.088Y-112.395
X70.358Y-102.997
X70.358Y-112.395
X71.628Y-101.854
X71.628Y-112.395
X72.898Y-100.584
X72.898Y-112.395
X74.168Y-99.314
X74.168Y-112.395
X75.438Y-98.044
X75.438Y-112.395
X76.708Y-96.774
X76.708Y-112.395
X84.709Y-89.535
X84.709Y-127.889
X86.106Y-95.885
X86.106Y-133.985
X88.138Y-124.079
X88.392Y-84.455
X90.678Y-121.539
X90.932Y-81.915
X94.234Y-73.152
X95.504Y-112.395
X95.885Y-114.554
X96.52Y-117.729
X96.774Y-79.375
X97.028Y-63.246
X98.044Y-78.105
X98.044Y-116.459
X99.187Y-76.835
X99.187Y-115.189
X99.441Y-73.152
X100.457Y-81.915
X100.457Y-120.269
X100.838Y-58.42
X101.727Y-74.295
X101.727Y-113.919
X103.251Y-131.699
X108.458Y-68.453
X111.379Y-71.628
X113.284Y-84.455
X113.284Y-122.428
X115.062Y-71.628
X115.443Y-85.725
X115.443Y-124.079
X116.332Y-88.265
X116.332Y-126.619
X116.967Y-73.279
X117.221Y-90.805
X117.221Y-129.159
X118.11Y-93.345
X118.11Y-131.699
X118.745Y-71.628
T2
X64.008Y-51.562
X64.008Y-66.802
X66.548Y-51.562
X66.548Y-66.802
X69.088Y-51.562
X69.088Y-66.802
X71.628Y-51.562
X71.628Y-66.802
X74.168Y-51.562
X74.168Y-66.802
X76.708Y-51.562
X76.708Y-66.802
X78.867Y-113.919
X78.867Y-116.459
X78.867Y-118.999
X78.867Y-121.539
X78.867Y-124.079
X78.867Y-126.619
X78.867Y-129.159
X78.867Y-131.699
X78.867Y-134.239
X78.867Y-136.779
X78.867Y-139.319
X78.867Y-141.859
X78.867Y-144.399
X78.867Y-146.939
X78.994Y-75.565
X78.994Y-78.105
X78.994Y-80.645
X78.994Y-83.185
X78.994Y-85.725
X78.994Y-88.265
X78.994Y-90.805
X78.994Y-93.345
X78.994Y-95.885
X78.994Y-98.425
X78.994Y-100.965
X78.994Y-103.505
X78.994Y-106.045
X78.994Y-108.585
X79.248Y-51.562
X79.248Y-66.802
X81.788Y-51.562
X81.788Y-66.802
X84.328Y-51.562
X84.328Y-66.802
X86.868Y-51.562
X86.868Y-66.802
X89.408Y-51.562
X89.408Y-66.802
X91.948Y-51.562
X91.948Y-66.802
X94.107Y-113.919
X94.107Y-116.459
X94.107Y-118.999
X94.107Y-121.539
X94.107Y-124.079
X94.107Y-126.619
X94.107Y-129.159
X94.107Y-131.699
X94.107Y-134.239
X94.107Y-136.779
X94.107Y-139.319
X94.107Y-141.859
X94.107Y-144.399
X94.107Y-146.939
X94.234Y-75.565
X94.234Y-78.105
X94.234Y-80.645
X94.234Y-83.185
X94.234Y-85.725
X94.234Y-88.265
X94.234Y-90.805
X94.234Y-93.345
X94.234Y-95.885
X94.234Y-98.425
X94.234Y-100.965
X94.234Y-103.505
X94.234Y-106.045
X94.234Y-108.585
X94.488Y-51.562
X94.488Y-66.802
X97.028Y-51.562
X97.028Y-66.802
X105.867Y-113.899
X105.867Y-116.439
X105.867Y-118.979
X105.867Y-121.519
X105.867Y-124.059
X105.867Y-126.599
X105.867Y-129.139
X105.867Y-131.679
X105.867Y-134.219
X105.867Y-136.759
X105.867Y-139.299
X105.867Y-141.839
X105.867Y-144.379
X105.867Y-146.919
X106.045Y-56.769
X106.045Y-64.389
X106.045Y-75.565
X106.045Y-78.105
X106.045Y-80.645
X106.045Y-83.185
X106.045Y-85.725
X106.045Y-88.265
X106.045Y-90.805
X106.045Y-93.345
X106.045Y-95.885
X106.045Y-98.425
X106.045Y-100.965
X106.045Y-103.505
X106.045Y-106.045
X106.045Y-108.585
X108.585Y-56.769
X108.585Y-64.389
X111.125Y-56.769
X111.125Y-64.389
X113.665Y-56.769
X113.665Y-64.389
X116.205Y-56.769
X116.205Y-64.389
X118.745Y-56.769
X118.745Y-64.389
X121.107Y-113.899
X121.107Y-116.439
X121.107Y-118.979
X121.107Y-121.519
X121.107Y-124.059
X121.107Y-126.599
X121.107Y-129.139
X121.107Y-131.679
X121.107Y-134.219
X121.107Y-136.759
X121.107Y-139.299
X121.107Y-141.839
X121.107Y-144.379
X121.107Y-146.919
X121.285Y-56.769
X121.285Y-64.389
X121.285Y-75.565
X121.285Y-78.105
X121.285Y-80.645
X121.285Y-83.185
X121.285Y-85.725
X121.285Y-88.265
X121.285Y-90.805
X121.285Y-93.345
X121.285Y-95.885
X121.285Y-98.425
X121.285Y-100.965
X121.285Y-103.505
X121.285Y-106.045
X121.285Y-108.585
X123.825Y-56.769
X123.825Y-64.389
T3
X69.5Y-145.5
X132.5Y-145.5
M30
