G04 #@! TF.GenerationSoftware,KiCad,Pcbnew,7.0.10*
G04 #@! TF.CreationDate,2024-02-26T06:51:28+09:00*
G04 #@! TF.ProjectId,fs-a1_rom_patch,66732d61-315f-4726-9f6d-5f7061746368,1.0*
G04 #@! TF.SameCoordinates,Original*
G04 #@! TF.FileFunction,Legend,Top*
G04 #@! TF.FilePolarity,Positive*
%FSLAX46Y46*%
G04 Gerber Fmt 4.6, Leading zero omitted, Abs format (unit mm)*
G04 Created by KiCad (PCBNEW 7.0.10) date 2024-02-26 06:51:28*
%MOMM*%
%LPD*%
G01*
G04 APERTURE LIST*
%ADD10C,0.150000*%
%ADD11C,0.120000*%
G04 APERTURE END LIST*
D10*
X70822200Y-100710839D02*
X70869819Y-100567982D01*
X70869819Y-100567982D02*
X70869819Y-100329887D01*
X70869819Y-100329887D02*
X70822200Y-100234649D01*
X70822200Y-100234649D02*
X70774580Y-100187030D01*
X70774580Y-100187030D02*
X70679342Y-100139411D01*
X70679342Y-100139411D02*
X70584104Y-100139411D01*
X70584104Y-100139411D02*
X70488866Y-100187030D01*
X70488866Y-100187030D02*
X70441247Y-100234649D01*
X70441247Y-100234649D02*
X70393628Y-100329887D01*
X70393628Y-100329887D02*
X70346009Y-100520363D01*
X70346009Y-100520363D02*
X70298390Y-100615601D01*
X70298390Y-100615601D02*
X70250771Y-100663220D01*
X70250771Y-100663220D02*
X70155533Y-100710839D01*
X70155533Y-100710839D02*
X70060295Y-100710839D01*
X70060295Y-100710839D02*
X69965057Y-100663220D01*
X69965057Y-100663220D02*
X69917438Y-100615601D01*
X69917438Y-100615601D02*
X69869819Y-100520363D01*
X69869819Y-100520363D02*
X69869819Y-100282268D01*
X69869819Y-100282268D02*
X69917438Y-100139411D01*
X70869819Y-99234649D02*
X70869819Y-99710839D01*
X70869819Y-99710839D02*
X69869819Y-99710839D01*
X69869819Y-98710839D02*
X69869819Y-98520363D01*
X69869819Y-98520363D02*
X69917438Y-98425125D01*
X69917438Y-98425125D02*
X70012676Y-98329887D01*
X70012676Y-98329887D02*
X70203152Y-98282268D01*
X70203152Y-98282268D02*
X70536485Y-98282268D01*
X70536485Y-98282268D02*
X70726961Y-98329887D01*
X70726961Y-98329887D02*
X70822200Y-98425125D01*
X70822200Y-98425125D02*
X70869819Y-98520363D01*
X70869819Y-98520363D02*
X70869819Y-98710839D01*
X70869819Y-98710839D02*
X70822200Y-98806077D01*
X70822200Y-98806077D02*
X70726961Y-98901315D01*
X70726961Y-98901315D02*
X70536485Y-98948934D01*
X70536485Y-98948934D02*
X70203152Y-98948934D01*
X70203152Y-98948934D02*
X70012676Y-98901315D01*
X70012676Y-98901315D02*
X69917438Y-98806077D01*
X69917438Y-98806077D02*
X69869819Y-98710839D01*
X69869819Y-97996553D02*
X69869819Y-97425125D01*
X70869819Y-97710839D02*
X69869819Y-97710839D01*
X70203152Y-97139410D02*
X70203152Y-96425125D01*
X69774580Y-96853696D02*
X71060295Y-97139410D01*
X70631723Y-96520363D02*
X70631723Y-97234648D01*
X71060295Y-96806077D02*
X69774580Y-96520363D01*
X69869819Y-95901315D02*
X69869819Y-95806077D01*
X69869819Y-95806077D02*
X69917438Y-95710839D01*
X69917438Y-95710839D02*
X69965057Y-95663220D01*
X69965057Y-95663220D02*
X70060295Y-95615601D01*
X70060295Y-95615601D02*
X70250771Y-95567982D01*
X70250771Y-95567982D02*
X70488866Y-95567982D01*
X70488866Y-95567982D02*
X70679342Y-95615601D01*
X70679342Y-95615601D02*
X70774580Y-95663220D01*
X70774580Y-95663220D02*
X70822200Y-95710839D01*
X70822200Y-95710839D02*
X70869819Y-95806077D01*
X70869819Y-95806077D02*
X70869819Y-95901315D01*
X70869819Y-95901315D02*
X70822200Y-95996553D01*
X70822200Y-95996553D02*
X70774580Y-96044172D01*
X70774580Y-96044172D02*
X70679342Y-96091791D01*
X70679342Y-96091791D02*
X70488866Y-96139410D01*
X70488866Y-96139410D02*
X70250771Y-96139410D01*
X70250771Y-96139410D02*
X70060295Y-96091791D01*
X70060295Y-96091791D02*
X69965057Y-96044172D01*
X69965057Y-96044172D02*
X69917438Y-95996553D01*
X69917438Y-95996553D02*
X69869819Y-95901315D01*
X70869819Y-94377505D02*
X69869819Y-94377505D01*
X69869819Y-94377505D02*
X70584104Y-94044172D01*
X70584104Y-94044172D02*
X69869819Y-93710839D01*
X69869819Y-93710839D02*
X70869819Y-93710839D01*
X70584104Y-93282267D02*
X70584104Y-92806077D01*
X70869819Y-93377505D02*
X69869819Y-93044172D01*
X69869819Y-93044172D02*
X70869819Y-92710839D01*
X70869819Y-92377505D02*
X69869819Y-92377505D01*
X70869819Y-91901315D02*
X69869819Y-91901315D01*
X69869819Y-91901315D02*
X70869819Y-91329887D01*
X70869819Y-91329887D02*
X69869819Y-91329887D01*
X70488866Y-90853696D02*
X70488866Y-90091792D01*
X70869819Y-89044173D02*
X70393628Y-89377506D01*
X70869819Y-89615601D02*
X69869819Y-89615601D01*
X69869819Y-89615601D02*
X69869819Y-89234649D01*
X69869819Y-89234649D02*
X69917438Y-89139411D01*
X69917438Y-89139411D02*
X69965057Y-89091792D01*
X69965057Y-89091792D02*
X70060295Y-89044173D01*
X70060295Y-89044173D02*
X70203152Y-89044173D01*
X70203152Y-89044173D02*
X70298390Y-89091792D01*
X70298390Y-89091792D02*
X70346009Y-89139411D01*
X70346009Y-89139411D02*
X70393628Y-89234649D01*
X70393628Y-89234649D02*
X70393628Y-89615601D01*
X69869819Y-88425125D02*
X69869819Y-88234649D01*
X69869819Y-88234649D02*
X69917438Y-88139411D01*
X69917438Y-88139411D02*
X70012676Y-88044173D01*
X70012676Y-88044173D02*
X70203152Y-87996554D01*
X70203152Y-87996554D02*
X70536485Y-87996554D01*
X70536485Y-87996554D02*
X70726961Y-88044173D01*
X70726961Y-88044173D02*
X70822200Y-88139411D01*
X70822200Y-88139411D02*
X70869819Y-88234649D01*
X70869819Y-88234649D02*
X70869819Y-88425125D01*
X70869819Y-88425125D02*
X70822200Y-88520363D01*
X70822200Y-88520363D02*
X70726961Y-88615601D01*
X70726961Y-88615601D02*
X70536485Y-88663220D01*
X70536485Y-88663220D02*
X70203152Y-88663220D01*
X70203152Y-88663220D02*
X70012676Y-88615601D01*
X70012676Y-88615601D02*
X69917438Y-88520363D01*
X69917438Y-88520363D02*
X69869819Y-88425125D01*
X70869819Y-87567982D02*
X69869819Y-87567982D01*
X69869819Y-87567982D02*
X70584104Y-87234649D01*
X70584104Y-87234649D02*
X69869819Y-86901316D01*
X69869819Y-86901316D02*
X70869819Y-86901316D01*
X69869819Y-85758458D02*
X69869819Y-85139411D01*
X69869819Y-85139411D02*
X70250771Y-85472744D01*
X70250771Y-85472744D02*
X70250771Y-85329887D01*
X70250771Y-85329887D02*
X70298390Y-85234649D01*
X70298390Y-85234649D02*
X70346009Y-85187030D01*
X70346009Y-85187030D02*
X70441247Y-85139411D01*
X70441247Y-85139411D02*
X70679342Y-85139411D01*
X70679342Y-85139411D02*
X70774580Y-85187030D01*
X70774580Y-85187030D02*
X70822200Y-85234649D01*
X70822200Y-85234649D02*
X70869819Y-85329887D01*
X70869819Y-85329887D02*
X70869819Y-85615601D01*
X70869819Y-85615601D02*
X70822200Y-85710839D01*
X70822200Y-85710839D02*
X70774580Y-85758458D01*
X69965057Y-84758458D02*
X69917438Y-84710839D01*
X69917438Y-84710839D02*
X69869819Y-84615601D01*
X69869819Y-84615601D02*
X69869819Y-84377506D01*
X69869819Y-84377506D02*
X69917438Y-84282268D01*
X69917438Y-84282268D02*
X69965057Y-84234649D01*
X69965057Y-84234649D02*
X70060295Y-84187030D01*
X70060295Y-84187030D02*
X70155533Y-84187030D01*
X70155533Y-84187030D02*
X70298390Y-84234649D01*
X70298390Y-84234649D02*
X70869819Y-84806077D01*
X70869819Y-84806077D02*
X70869819Y-84187030D01*
X70869819Y-83758458D02*
X69869819Y-83758458D01*
X70869819Y-83187030D02*
X70298390Y-83615601D01*
X69869819Y-83187030D02*
X70441247Y-83758458D01*
X70346009Y-82425125D02*
X70393628Y-82282268D01*
X70393628Y-82282268D02*
X70441247Y-82234649D01*
X70441247Y-82234649D02*
X70536485Y-82187030D01*
X70536485Y-82187030D02*
X70679342Y-82187030D01*
X70679342Y-82187030D02*
X70774580Y-82234649D01*
X70774580Y-82234649D02*
X70822200Y-82282268D01*
X70822200Y-82282268D02*
X70869819Y-82377506D01*
X70869819Y-82377506D02*
X70869819Y-82758458D01*
X70869819Y-82758458D02*
X69869819Y-82758458D01*
X69869819Y-82758458D02*
X69869819Y-82425125D01*
X69869819Y-82425125D02*
X69917438Y-82329887D01*
X69917438Y-82329887D02*
X69965057Y-82282268D01*
X69965057Y-82282268D02*
X70060295Y-82234649D01*
X70060295Y-82234649D02*
X70155533Y-82234649D01*
X70155533Y-82234649D02*
X70250771Y-82282268D01*
X70250771Y-82282268D02*
X70298390Y-82329887D01*
X70298390Y-82329887D02*
X70346009Y-82425125D01*
X70346009Y-82425125D02*
X70346009Y-82758458D01*
X71250771Y-80710839D02*
X71203152Y-80758458D01*
X71203152Y-80758458D02*
X71060295Y-80853696D01*
X71060295Y-80853696D02*
X70965057Y-80901315D01*
X70965057Y-80901315D02*
X70822200Y-80948934D01*
X70822200Y-80948934D02*
X70584104Y-80996553D01*
X70584104Y-80996553D02*
X70393628Y-80996553D01*
X70393628Y-80996553D02*
X70155533Y-80948934D01*
X70155533Y-80948934D02*
X70012676Y-80901315D01*
X70012676Y-80901315D02*
X69917438Y-80853696D01*
X69917438Y-80853696D02*
X69774580Y-80758458D01*
X69774580Y-80758458D02*
X69726961Y-80710839D01*
X70869819Y-80329886D02*
X69869819Y-80329886D01*
X69869819Y-80329886D02*
X69869819Y-79948934D01*
X69869819Y-79948934D02*
X69917438Y-79853696D01*
X69917438Y-79853696D02*
X69965057Y-79806077D01*
X69965057Y-79806077D02*
X70060295Y-79758458D01*
X70060295Y-79758458D02*
X70203152Y-79758458D01*
X70203152Y-79758458D02*
X70298390Y-79806077D01*
X70298390Y-79806077D02*
X70346009Y-79853696D01*
X70346009Y-79853696D02*
X70393628Y-79948934D01*
X70393628Y-79948934D02*
X70393628Y-80329886D01*
X69869819Y-79139410D02*
X69869819Y-79044172D01*
X69869819Y-79044172D02*
X69917438Y-78948934D01*
X69917438Y-78948934D02*
X69965057Y-78901315D01*
X69965057Y-78901315D02*
X70060295Y-78853696D01*
X70060295Y-78853696D02*
X70250771Y-78806077D01*
X70250771Y-78806077D02*
X70488866Y-78806077D01*
X70488866Y-78806077D02*
X70679342Y-78853696D01*
X70679342Y-78853696D02*
X70774580Y-78901315D01*
X70774580Y-78901315D02*
X70822200Y-78948934D01*
X70822200Y-78948934D02*
X70869819Y-79044172D01*
X70869819Y-79044172D02*
X70869819Y-79139410D01*
X70869819Y-79139410D02*
X70822200Y-79234648D01*
X70822200Y-79234648D02*
X70774580Y-79282267D01*
X70774580Y-79282267D02*
X70679342Y-79329886D01*
X70679342Y-79329886D02*
X70488866Y-79377505D01*
X70488866Y-79377505D02*
X70250771Y-79377505D01*
X70250771Y-79377505D02*
X70060295Y-79329886D01*
X70060295Y-79329886D02*
X69965057Y-79282267D01*
X69965057Y-79282267D02*
X69917438Y-79234648D01*
X69917438Y-79234648D02*
X69869819Y-79139410D01*
X70822200Y-78329886D02*
X70869819Y-78329886D01*
X70869819Y-78329886D02*
X70965057Y-78377505D01*
X70965057Y-78377505D02*
X71012676Y-78425124D01*
X70869819Y-77901315D02*
X69869819Y-77901315D01*
X69869819Y-77901315D02*
X69869819Y-77520363D01*
X69869819Y-77520363D02*
X69917438Y-77425125D01*
X69917438Y-77425125D02*
X69965057Y-77377506D01*
X69965057Y-77377506D02*
X70060295Y-77329887D01*
X70060295Y-77329887D02*
X70203152Y-77329887D01*
X70203152Y-77329887D02*
X70298390Y-77377506D01*
X70298390Y-77377506D02*
X70346009Y-77425125D01*
X70346009Y-77425125D02*
X70393628Y-77520363D01*
X70393628Y-77520363D02*
X70393628Y-77901315D01*
X70869819Y-76377506D02*
X70869819Y-76948934D01*
X70869819Y-76663220D02*
X69869819Y-76663220D01*
X69869819Y-76663220D02*
X70012676Y-76758458D01*
X70012676Y-76758458D02*
X70107914Y-76853696D01*
X70107914Y-76853696D02*
X70155533Y-76948934D01*
X71250771Y-76044172D02*
X71203152Y-75996553D01*
X71203152Y-75996553D02*
X71060295Y-75901315D01*
X71060295Y-75901315D02*
X70965057Y-75853696D01*
X70965057Y-75853696D02*
X70822200Y-75806077D01*
X70822200Y-75806077D02*
X70584104Y-75758458D01*
X70584104Y-75758458D02*
X70393628Y-75758458D01*
X70393628Y-75758458D02*
X70155533Y-75806077D01*
X70155533Y-75806077D02*
X70012676Y-75853696D01*
X70012676Y-75853696D02*
X69917438Y-75901315D01*
X69917438Y-75901315D02*
X69774580Y-75996553D01*
X69774580Y-75996553D02*
X69726961Y-76044172D01*
X75790588Y-59559819D02*
X75219160Y-59559819D01*
X75504874Y-59559819D02*
X75504874Y-58559819D01*
X75504874Y-58559819D02*
X75409636Y-58702676D01*
X75409636Y-58702676D02*
X75314398Y-58797914D01*
X75314398Y-58797914D02*
X75219160Y-58845533D01*
X76219160Y-59559819D02*
X76219160Y-58559819D01*
X76219160Y-58559819D02*
X76552493Y-59274104D01*
X76552493Y-59274104D02*
X76885826Y-58559819D01*
X76885826Y-58559819D02*
X76885826Y-59559819D01*
X77362017Y-59559819D02*
X77362017Y-58559819D01*
X77362017Y-58940771D02*
X77457255Y-58893152D01*
X77457255Y-58893152D02*
X77647731Y-58893152D01*
X77647731Y-58893152D02*
X77742969Y-58940771D01*
X77742969Y-58940771D02*
X77790588Y-58988390D01*
X77790588Y-58988390D02*
X77838207Y-59083628D01*
X77838207Y-59083628D02*
X77838207Y-59369342D01*
X77838207Y-59369342D02*
X77790588Y-59464580D01*
X77790588Y-59464580D02*
X77742969Y-59512200D01*
X77742969Y-59512200D02*
X77647731Y-59559819D01*
X77647731Y-59559819D02*
X77457255Y-59559819D01*
X77457255Y-59559819D02*
X77362017Y-59512200D01*
X78266779Y-59559819D02*
X78266779Y-58893152D01*
X78266779Y-58559819D02*
X78219160Y-58607438D01*
X78219160Y-58607438D02*
X78266779Y-58655057D01*
X78266779Y-58655057D02*
X78314398Y-58607438D01*
X78314398Y-58607438D02*
X78266779Y-58559819D01*
X78266779Y-58559819D02*
X78266779Y-58655057D01*
X78600112Y-58893152D02*
X78981064Y-58893152D01*
X78742969Y-58559819D02*
X78742969Y-59416961D01*
X78742969Y-59416961D02*
X78790588Y-59512200D01*
X78790588Y-59512200D02*
X78885826Y-59559819D01*
X78885826Y-59559819D02*
X78981064Y-59559819D01*
X80647731Y-59559819D02*
X80314398Y-59083628D01*
X80076303Y-59559819D02*
X80076303Y-58559819D01*
X80076303Y-58559819D02*
X80457255Y-58559819D01*
X80457255Y-58559819D02*
X80552493Y-58607438D01*
X80552493Y-58607438D02*
X80600112Y-58655057D01*
X80600112Y-58655057D02*
X80647731Y-58750295D01*
X80647731Y-58750295D02*
X80647731Y-58893152D01*
X80647731Y-58893152D02*
X80600112Y-58988390D01*
X80600112Y-58988390D02*
X80552493Y-59036009D01*
X80552493Y-59036009D02*
X80457255Y-59083628D01*
X80457255Y-59083628D02*
X80076303Y-59083628D01*
X81266779Y-58559819D02*
X81457255Y-58559819D01*
X81457255Y-58559819D02*
X81552493Y-58607438D01*
X81552493Y-58607438D02*
X81647731Y-58702676D01*
X81647731Y-58702676D02*
X81695350Y-58893152D01*
X81695350Y-58893152D02*
X81695350Y-59226485D01*
X81695350Y-59226485D02*
X81647731Y-59416961D01*
X81647731Y-59416961D02*
X81552493Y-59512200D01*
X81552493Y-59512200D02*
X81457255Y-59559819D01*
X81457255Y-59559819D02*
X81266779Y-59559819D01*
X81266779Y-59559819D02*
X81171541Y-59512200D01*
X81171541Y-59512200D02*
X81076303Y-59416961D01*
X81076303Y-59416961D02*
X81028684Y-59226485D01*
X81028684Y-59226485D02*
X81028684Y-58893152D01*
X81028684Y-58893152D02*
X81076303Y-58702676D01*
X81076303Y-58702676D02*
X81171541Y-58607438D01*
X81171541Y-58607438D02*
X81266779Y-58559819D01*
X82123922Y-59559819D02*
X82123922Y-58559819D01*
X82123922Y-58559819D02*
X82457255Y-59274104D01*
X82457255Y-59274104D02*
X82790588Y-58559819D01*
X82790588Y-58559819D02*
X82790588Y-59559819D01*
X83981065Y-59512200D02*
X84076303Y-59559819D01*
X84076303Y-59559819D02*
X84266779Y-59559819D01*
X84266779Y-59559819D02*
X84362017Y-59512200D01*
X84362017Y-59512200D02*
X84409636Y-59416961D01*
X84409636Y-59416961D02*
X84409636Y-59369342D01*
X84409636Y-59369342D02*
X84362017Y-59274104D01*
X84362017Y-59274104D02*
X84266779Y-59226485D01*
X84266779Y-59226485D02*
X84123922Y-59226485D01*
X84123922Y-59226485D02*
X84028684Y-59178866D01*
X84028684Y-59178866D02*
X83981065Y-59083628D01*
X83981065Y-59083628D02*
X83981065Y-59036009D01*
X83981065Y-59036009D02*
X84028684Y-58940771D01*
X84028684Y-58940771D02*
X84123922Y-58893152D01*
X84123922Y-58893152D02*
X84266779Y-58893152D01*
X84266779Y-58893152D02*
X84362017Y-58940771D01*
X84981065Y-59559819D02*
X84885827Y-59512200D01*
X84885827Y-59512200D02*
X84838208Y-59464580D01*
X84838208Y-59464580D02*
X84790589Y-59369342D01*
X84790589Y-59369342D02*
X84790589Y-59083628D01*
X84790589Y-59083628D02*
X84838208Y-58988390D01*
X84838208Y-58988390D02*
X84885827Y-58940771D01*
X84885827Y-58940771D02*
X84981065Y-58893152D01*
X84981065Y-58893152D02*
X85123922Y-58893152D01*
X85123922Y-58893152D02*
X85219160Y-58940771D01*
X85219160Y-58940771D02*
X85266779Y-58988390D01*
X85266779Y-58988390D02*
X85314398Y-59083628D01*
X85314398Y-59083628D02*
X85314398Y-59369342D01*
X85314398Y-59369342D02*
X85266779Y-59464580D01*
X85266779Y-59464580D02*
X85219160Y-59512200D01*
X85219160Y-59512200D02*
X85123922Y-59559819D01*
X85123922Y-59559819D02*
X84981065Y-59559819D01*
X86171541Y-59512200D02*
X86076303Y-59559819D01*
X86076303Y-59559819D02*
X85885827Y-59559819D01*
X85885827Y-59559819D02*
X85790589Y-59512200D01*
X85790589Y-59512200D02*
X85742970Y-59464580D01*
X85742970Y-59464580D02*
X85695351Y-59369342D01*
X85695351Y-59369342D02*
X85695351Y-59083628D01*
X85695351Y-59083628D02*
X85742970Y-58988390D01*
X85742970Y-58988390D02*
X85790589Y-58940771D01*
X85790589Y-58940771D02*
X85885827Y-58893152D01*
X85885827Y-58893152D02*
X86076303Y-58893152D01*
X86076303Y-58893152D02*
X86171541Y-58940771D01*
X86600113Y-59559819D02*
X86600113Y-58559819D01*
X86695351Y-59178866D02*
X86981065Y-59559819D01*
X86981065Y-58893152D02*
X86600113Y-59274104D01*
X87790589Y-59512200D02*
X87695351Y-59559819D01*
X87695351Y-59559819D02*
X87504875Y-59559819D01*
X87504875Y-59559819D02*
X87409637Y-59512200D01*
X87409637Y-59512200D02*
X87362018Y-59416961D01*
X87362018Y-59416961D02*
X87362018Y-59036009D01*
X87362018Y-59036009D02*
X87409637Y-58940771D01*
X87409637Y-58940771D02*
X87504875Y-58893152D01*
X87504875Y-58893152D02*
X87695351Y-58893152D01*
X87695351Y-58893152D02*
X87790589Y-58940771D01*
X87790589Y-58940771D02*
X87838208Y-59036009D01*
X87838208Y-59036009D02*
X87838208Y-59131247D01*
X87838208Y-59131247D02*
X87362018Y-59226485D01*
X88123923Y-58893152D02*
X88504875Y-58893152D01*
X88266780Y-58559819D02*
X88266780Y-59416961D01*
X88266780Y-59416961D02*
X88314399Y-59512200D01*
X88314399Y-59512200D02*
X88409637Y-59559819D01*
X88409637Y-59559819D02*
X88504875Y-59559819D01*
X135236009Y-94329887D02*
X135236009Y-94663220D01*
X135759819Y-94663220D02*
X134759819Y-94663220D01*
X134759819Y-94663220D02*
X134759819Y-94187030D01*
X135712200Y-93853696D02*
X135759819Y-93710839D01*
X135759819Y-93710839D02*
X135759819Y-93472744D01*
X135759819Y-93472744D02*
X135712200Y-93377506D01*
X135712200Y-93377506D02*
X135664580Y-93329887D01*
X135664580Y-93329887D02*
X135569342Y-93282268D01*
X135569342Y-93282268D02*
X135474104Y-93282268D01*
X135474104Y-93282268D02*
X135378866Y-93329887D01*
X135378866Y-93329887D02*
X135331247Y-93377506D01*
X135331247Y-93377506D02*
X135283628Y-93472744D01*
X135283628Y-93472744D02*
X135236009Y-93663220D01*
X135236009Y-93663220D02*
X135188390Y-93758458D01*
X135188390Y-93758458D02*
X135140771Y-93806077D01*
X135140771Y-93806077D02*
X135045533Y-93853696D01*
X135045533Y-93853696D02*
X134950295Y-93853696D01*
X134950295Y-93853696D02*
X134855057Y-93806077D01*
X134855057Y-93806077D02*
X134807438Y-93758458D01*
X134807438Y-93758458D02*
X134759819Y-93663220D01*
X134759819Y-93663220D02*
X134759819Y-93425125D01*
X134759819Y-93425125D02*
X134807438Y-93282268D01*
X135378866Y-92853696D02*
X135378866Y-92091792D01*
X135474104Y-91663220D02*
X135474104Y-91187030D01*
X135759819Y-91758458D02*
X134759819Y-91425125D01*
X134759819Y-91425125D02*
X135759819Y-91091792D01*
X135759819Y-90234649D02*
X135759819Y-90806077D01*
X135759819Y-90520363D02*
X134759819Y-90520363D01*
X134759819Y-90520363D02*
X134902676Y-90615601D01*
X134902676Y-90615601D02*
X134997914Y-90710839D01*
X134997914Y-90710839D02*
X135045533Y-90806077D01*
X135759819Y-88520363D02*
X135759819Y-89091791D01*
X135759819Y-88806077D02*
X134759819Y-88806077D01*
X134759819Y-88806077D02*
X134902676Y-88901315D01*
X134902676Y-88901315D02*
X134997914Y-88996553D01*
X134997914Y-88996553D02*
X135045533Y-89091791D01*
X135759819Y-88091791D02*
X134759819Y-88091791D01*
X134759819Y-88091791D02*
X135474104Y-87758458D01*
X135474104Y-87758458D02*
X134759819Y-87425125D01*
X134759819Y-87425125D02*
X135759819Y-87425125D01*
X135759819Y-86948934D02*
X134759819Y-86948934D01*
X135140771Y-86948934D02*
X135093152Y-86853696D01*
X135093152Y-86853696D02*
X135093152Y-86663220D01*
X135093152Y-86663220D02*
X135140771Y-86567982D01*
X135140771Y-86567982D02*
X135188390Y-86520363D01*
X135188390Y-86520363D02*
X135283628Y-86472744D01*
X135283628Y-86472744D02*
X135569342Y-86472744D01*
X135569342Y-86472744D02*
X135664580Y-86520363D01*
X135664580Y-86520363D02*
X135712200Y-86567982D01*
X135712200Y-86567982D02*
X135759819Y-86663220D01*
X135759819Y-86663220D02*
X135759819Y-86853696D01*
X135759819Y-86853696D02*
X135712200Y-86948934D01*
X135759819Y-86044172D02*
X135093152Y-86044172D01*
X134759819Y-86044172D02*
X134807438Y-86091791D01*
X134807438Y-86091791D02*
X134855057Y-86044172D01*
X134855057Y-86044172D02*
X134807438Y-85996553D01*
X134807438Y-85996553D02*
X134759819Y-86044172D01*
X134759819Y-86044172D02*
X134855057Y-86044172D01*
X135093152Y-85710839D02*
X135093152Y-85329887D01*
X134759819Y-85567982D02*
X135616961Y-85567982D01*
X135616961Y-85567982D02*
X135712200Y-85520363D01*
X135712200Y-85520363D02*
X135759819Y-85425125D01*
X135759819Y-85425125D02*
X135759819Y-85329887D01*
X135759819Y-83663220D02*
X135283628Y-83996553D01*
X135759819Y-84234648D02*
X134759819Y-84234648D01*
X134759819Y-84234648D02*
X134759819Y-83853696D01*
X134759819Y-83853696D02*
X134807438Y-83758458D01*
X134807438Y-83758458D02*
X134855057Y-83710839D01*
X134855057Y-83710839D02*
X134950295Y-83663220D01*
X134950295Y-83663220D02*
X135093152Y-83663220D01*
X135093152Y-83663220D02*
X135188390Y-83710839D01*
X135188390Y-83710839D02*
X135236009Y-83758458D01*
X135236009Y-83758458D02*
X135283628Y-83853696D01*
X135283628Y-83853696D02*
X135283628Y-84234648D01*
X134759819Y-83044172D02*
X134759819Y-82853696D01*
X134759819Y-82853696D02*
X134807438Y-82758458D01*
X134807438Y-82758458D02*
X134902676Y-82663220D01*
X134902676Y-82663220D02*
X135093152Y-82615601D01*
X135093152Y-82615601D02*
X135426485Y-82615601D01*
X135426485Y-82615601D02*
X135616961Y-82663220D01*
X135616961Y-82663220D02*
X135712200Y-82758458D01*
X135712200Y-82758458D02*
X135759819Y-82853696D01*
X135759819Y-82853696D02*
X135759819Y-83044172D01*
X135759819Y-83044172D02*
X135712200Y-83139410D01*
X135712200Y-83139410D02*
X135616961Y-83234648D01*
X135616961Y-83234648D02*
X135426485Y-83282267D01*
X135426485Y-83282267D02*
X135093152Y-83282267D01*
X135093152Y-83282267D02*
X134902676Y-83234648D01*
X134902676Y-83234648D02*
X134807438Y-83139410D01*
X134807438Y-83139410D02*
X134759819Y-83044172D01*
X135759819Y-82187029D02*
X134759819Y-82187029D01*
X134759819Y-82187029D02*
X135474104Y-81853696D01*
X135474104Y-81853696D02*
X134759819Y-81520363D01*
X134759819Y-81520363D02*
X135759819Y-81520363D01*
X135759819Y-80282267D02*
X134759819Y-80282267D01*
X134759819Y-80282267D02*
X134759819Y-79901315D01*
X134759819Y-79901315D02*
X134807438Y-79806077D01*
X134807438Y-79806077D02*
X134855057Y-79758458D01*
X134855057Y-79758458D02*
X134950295Y-79710839D01*
X134950295Y-79710839D02*
X135093152Y-79710839D01*
X135093152Y-79710839D02*
X135188390Y-79758458D01*
X135188390Y-79758458D02*
X135236009Y-79806077D01*
X135236009Y-79806077D02*
X135283628Y-79901315D01*
X135283628Y-79901315D02*
X135283628Y-80282267D01*
X135759819Y-78853696D02*
X135236009Y-78853696D01*
X135236009Y-78853696D02*
X135140771Y-78901315D01*
X135140771Y-78901315D02*
X135093152Y-78996553D01*
X135093152Y-78996553D02*
X135093152Y-79187029D01*
X135093152Y-79187029D02*
X135140771Y-79282267D01*
X135712200Y-78853696D02*
X135759819Y-78948934D01*
X135759819Y-78948934D02*
X135759819Y-79187029D01*
X135759819Y-79187029D02*
X135712200Y-79282267D01*
X135712200Y-79282267D02*
X135616961Y-79329886D01*
X135616961Y-79329886D02*
X135521723Y-79329886D01*
X135521723Y-79329886D02*
X135426485Y-79282267D01*
X135426485Y-79282267D02*
X135378866Y-79187029D01*
X135378866Y-79187029D02*
X135378866Y-78948934D01*
X135378866Y-78948934D02*
X135331247Y-78853696D01*
X135093152Y-78520362D02*
X135093152Y-78139410D01*
X134759819Y-78377505D02*
X135616961Y-78377505D01*
X135616961Y-78377505D02*
X135712200Y-78329886D01*
X135712200Y-78329886D02*
X135759819Y-78234648D01*
X135759819Y-78234648D02*
X135759819Y-78139410D01*
X135712200Y-77377505D02*
X135759819Y-77472743D01*
X135759819Y-77472743D02*
X135759819Y-77663219D01*
X135759819Y-77663219D02*
X135712200Y-77758457D01*
X135712200Y-77758457D02*
X135664580Y-77806076D01*
X135664580Y-77806076D02*
X135569342Y-77853695D01*
X135569342Y-77853695D02*
X135283628Y-77853695D01*
X135283628Y-77853695D02*
X135188390Y-77806076D01*
X135188390Y-77806076D02*
X135140771Y-77758457D01*
X135140771Y-77758457D02*
X135093152Y-77663219D01*
X135093152Y-77663219D02*
X135093152Y-77472743D01*
X135093152Y-77472743D02*
X135140771Y-77377505D01*
X135759819Y-76948933D02*
X134759819Y-76948933D01*
X135759819Y-76520362D02*
X135236009Y-76520362D01*
X135236009Y-76520362D02*
X135140771Y-76567981D01*
X135140771Y-76567981D02*
X135093152Y-76663219D01*
X135093152Y-76663219D02*
X135093152Y-76806076D01*
X135093152Y-76806076D02*
X135140771Y-76901314D01*
X135140771Y-76901314D02*
X135188390Y-76948933D01*
X135712200Y-75663219D02*
X135759819Y-75758457D01*
X135759819Y-75758457D02*
X135759819Y-75948933D01*
X135759819Y-75948933D02*
X135712200Y-76044171D01*
X135712200Y-76044171D02*
X135616961Y-76091790D01*
X135616961Y-76091790D02*
X135236009Y-76091790D01*
X135236009Y-76091790D02*
X135140771Y-76044171D01*
X135140771Y-76044171D02*
X135093152Y-75948933D01*
X135093152Y-75948933D02*
X135093152Y-75758457D01*
X135093152Y-75758457D02*
X135140771Y-75663219D01*
X135140771Y-75663219D02*
X135236009Y-75615600D01*
X135236009Y-75615600D02*
X135331247Y-75615600D01*
X135331247Y-75615600D02*
X135426485Y-76091790D01*
X135759819Y-75187028D02*
X135093152Y-75187028D01*
X135283628Y-75187028D02*
X135188390Y-75139409D01*
X135188390Y-75139409D02*
X135140771Y-75091790D01*
X135140771Y-75091790D02*
X135093152Y-74996552D01*
X135093152Y-74996552D02*
X135093152Y-74901314D01*
X135759819Y-73806075D02*
X135093152Y-73806075D01*
X135283628Y-73806075D02*
X135188390Y-73758456D01*
X135188390Y-73758456D02*
X135140771Y-73710837D01*
X135140771Y-73710837D02*
X135093152Y-73615599D01*
X135093152Y-73615599D02*
X135093152Y-73520361D01*
X135712200Y-72806075D02*
X135759819Y-72901313D01*
X135759819Y-72901313D02*
X135759819Y-73091789D01*
X135759819Y-73091789D02*
X135712200Y-73187027D01*
X135712200Y-73187027D02*
X135616961Y-73234646D01*
X135616961Y-73234646D02*
X135236009Y-73234646D01*
X135236009Y-73234646D02*
X135140771Y-73187027D01*
X135140771Y-73187027D02*
X135093152Y-73091789D01*
X135093152Y-73091789D02*
X135093152Y-72901313D01*
X135093152Y-72901313D02*
X135140771Y-72806075D01*
X135140771Y-72806075D02*
X135236009Y-72758456D01*
X135236009Y-72758456D02*
X135331247Y-72758456D01*
X135331247Y-72758456D02*
X135426485Y-73234646D01*
X135093152Y-72425122D02*
X135759819Y-72187027D01*
X135759819Y-72187027D02*
X135093152Y-71948932D01*
X135664580Y-71567979D02*
X135712200Y-71520360D01*
X135712200Y-71520360D02*
X135759819Y-71567979D01*
X135759819Y-71567979D02*
X135712200Y-71615598D01*
X135712200Y-71615598D02*
X135664580Y-71567979D01*
X135664580Y-71567979D02*
X135759819Y-71567979D01*
X134759819Y-71187027D02*
X134759819Y-70567980D01*
X134759819Y-70567980D02*
X135140771Y-70901313D01*
X135140771Y-70901313D02*
X135140771Y-70758456D01*
X135140771Y-70758456D02*
X135188390Y-70663218D01*
X135188390Y-70663218D02*
X135236009Y-70615599D01*
X135236009Y-70615599D02*
X135331247Y-70567980D01*
X135331247Y-70567980D02*
X135569342Y-70567980D01*
X135569342Y-70567980D02*
X135664580Y-70615599D01*
X135664580Y-70615599D02*
X135712200Y-70663218D01*
X135712200Y-70663218D02*
X135759819Y-70758456D01*
X135759819Y-70758456D02*
X135759819Y-71044170D01*
X135759819Y-71044170D02*
X135712200Y-71139408D01*
X135712200Y-71139408D02*
X135664580Y-71187027D01*
X137274580Y-94091792D02*
X137322200Y-94139411D01*
X137322200Y-94139411D02*
X137369819Y-94282268D01*
X137369819Y-94282268D02*
X137369819Y-94377506D01*
X137369819Y-94377506D02*
X137322200Y-94520363D01*
X137322200Y-94520363D02*
X137226961Y-94615601D01*
X137226961Y-94615601D02*
X137131723Y-94663220D01*
X137131723Y-94663220D02*
X136941247Y-94710839D01*
X136941247Y-94710839D02*
X136798390Y-94710839D01*
X136798390Y-94710839D02*
X136607914Y-94663220D01*
X136607914Y-94663220D02*
X136512676Y-94615601D01*
X136512676Y-94615601D02*
X136417438Y-94520363D01*
X136417438Y-94520363D02*
X136369819Y-94377506D01*
X136369819Y-94377506D02*
X136369819Y-94282268D01*
X136369819Y-94282268D02*
X136417438Y-94139411D01*
X136417438Y-94139411D02*
X136465057Y-94091792D01*
X137369819Y-93520363D02*
X137322200Y-93615601D01*
X137322200Y-93615601D02*
X137274580Y-93663220D01*
X137274580Y-93663220D02*
X137179342Y-93710839D01*
X137179342Y-93710839D02*
X136893628Y-93710839D01*
X136893628Y-93710839D02*
X136798390Y-93663220D01*
X136798390Y-93663220D02*
X136750771Y-93615601D01*
X136750771Y-93615601D02*
X136703152Y-93520363D01*
X136703152Y-93520363D02*
X136703152Y-93377506D01*
X136703152Y-93377506D02*
X136750771Y-93282268D01*
X136750771Y-93282268D02*
X136798390Y-93234649D01*
X136798390Y-93234649D02*
X136893628Y-93187030D01*
X136893628Y-93187030D02*
X137179342Y-93187030D01*
X137179342Y-93187030D02*
X137274580Y-93234649D01*
X137274580Y-93234649D02*
X137322200Y-93282268D01*
X137322200Y-93282268D02*
X137369819Y-93377506D01*
X137369819Y-93377506D02*
X137369819Y-93520363D01*
X136703152Y-92758458D02*
X137703152Y-92758458D01*
X136750771Y-92758458D02*
X136703152Y-92663220D01*
X136703152Y-92663220D02*
X136703152Y-92472744D01*
X136703152Y-92472744D02*
X136750771Y-92377506D01*
X136750771Y-92377506D02*
X136798390Y-92329887D01*
X136798390Y-92329887D02*
X136893628Y-92282268D01*
X136893628Y-92282268D02*
X137179342Y-92282268D01*
X137179342Y-92282268D02*
X137274580Y-92329887D01*
X137274580Y-92329887D02*
X137322200Y-92377506D01*
X137322200Y-92377506D02*
X137369819Y-92472744D01*
X137369819Y-92472744D02*
X137369819Y-92663220D01*
X137369819Y-92663220D02*
X137322200Y-92758458D01*
X136703152Y-91948934D02*
X137369819Y-91710839D01*
X136703152Y-91472744D02*
X137369819Y-91710839D01*
X137369819Y-91710839D02*
X137607914Y-91806077D01*
X137607914Y-91806077D02*
X137655533Y-91853696D01*
X137655533Y-91853696D02*
X137703152Y-91948934D01*
X137369819Y-91091791D02*
X136703152Y-91091791D01*
X136893628Y-91091791D02*
X136798390Y-91044172D01*
X136798390Y-91044172D02*
X136750771Y-90996553D01*
X136750771Y-90996553D02*
X136703152Y-90901315D01*
X136703152Y-90901315D02*
X136703152Y-90806077D01*
X137369819Y-90472743D02*
X136703152Y-90472743D01*
X136369819Y-90472743D02*
X136417438Y-90520362D01*
X136417438Y-90520362D02*
X136465057Y-90472743D01*
X136465057Y-90472743D02*
X136417438Y-90425124D01*
X136417438Y-90425124D02*
X136369819Y-90472743D01*
X136369819Y-90472743D02*
X136465057Y-90472743D01*
X136703152Y-89567982D02*
X137512676Y-89567982D01*
X137512676Y-89567982D02*
X137607914Y-89615601D01*
X137607914Y-89615601D02*
X137655533Y-89663220D01*
X137655533Y-89663220D02*
X137703152Y-89758458D01*
X137703152Y-89758458D02*
X137703152Y-89901315D01*
X137703152Y-89901315D02*
X137655533Y-89996553D01*
X137322200Y-89567982D02*
X137369819Y-89663220D01*
X137369819Y-89663220D02*
X137369819Y-89853696D01*
X137369819Y-89853696D02*
X137322200Y-89948934D01*
X137322200Y-89948934D02*
X137274580Y-89996553D01*
X137274580Y-89996553D02*
X137179342Y-90044172D01*
X137179342Y-90044172D02*
X136893628Y-90044172D01*
X136893628Y-90044172D02*
X136798390Y-89996553D01*
X136798390Y-89996553D02*
X136750771Y-89948934D01*
X136750771Y-89948934D02*
X136703152Y-89853696D01*
X136703152Y-89853696D02*
X136703152Y-89663220D01*
X136703152Y-89663220D02*
X136750771Y-89567982D01*
X137369819Y-89091791D02*
X136369819Y-89091791D01*
X137369819Y-88663220D02*
X136846009Y-88663220D01*
X136846009Y-88663220D02*
X136750771Y-88710839D01*
X136750771Y-88710839D02*
X136703152Y-88806077D01*
X136703152Y-88806077D02*
X136703152Y-88948934D01*
X136703152Y-88948934D02*
X136750771Y-89044172D01*
X136750771Y-89044172D02*
X136798390Y-89091791D01*
X136703152Y-88329886D02*
X136703152Y-87948934D01*
X136369819Y-88187029D02*
X137226961Y-88187029D01*
X137226961Y-88187029D02*
X137322200Y-88139410D01*
X137322200Y-88139410D02*
X137369819Y-88044172D01*
X137369819Y-88044172D02*
X137369819Y-87948934D01*
X137750771Y-86567981D02*
X137703152Y-86615600D01*
X137703152Y-86615600D02*
X137560295Y-86710838D01*
X137560295Y-86710838D02*
X137465057Y-86758457D01*
X137465057Y-86758457D02*
X137322200Y-86806076D01*
X137322200Y-86806076D02*
X137084104Y-86853695D01*
X137084104Y-86853695D02*
X136893628Y-86853695D01*
X136893628Y-86853695D02*
X136655533Y-86806076D01*
X136655533Y-86806076D02*
X136512676Y-86758457D01*
X136512676Y-86758457D02*
X136417438Y-86710838D01*
X136417438Y-86710838D02*
X136274580Y-86615600D01*
X136274580Y-86615600D02*
X136226961Y-86567981D01*
X137274580Y-85615600D02*
X137322200Y-85663219D01*
X137322200Y-85663219D02*
X137369819Y-85806076D01*
X137369819Y-85806076D02*
X137369819Y-85901314D01*
X137369819Y-85901314D02*
X137322200Y-86044171D01*
X137322200Y-86044171D02*
X137226961Y-86139409D01*
X137226961Y-86139409D02*
X137131723Y-86187028D01*
X137131723Y-86187028D02*
X136941247Y-86234647D01*
X136941247Y-86234647D02*
X136798390Y-86234647D01*
X136798390Y-86234647D02*
X136607914Y-86187028D01*
X136607914Y-86187028D02*
X136512676Y-86139409D01*
X136512676Y-86139409D02*
X136417438Y-86044171D01*
X136417438Y-86044171D02*
X136369819Y-85901314D01*
X136369819Y-85901314D02*
X136369819Y-85806076D01*
X136369819Y-85806076D02*
X136417438Y-85663219D01*
X136417438Y-85663219D02*
X136465057Y-85615600D01*
X137750771Y-85282266D02*
X137703152Y-85234647D01*
X137703152Y-85234647D02*
X137560295Y-85139409D01*
X137560295Y-85139409D02*
X137465057Y-85091790D01*
X137465057Y-85091790D02*
X137322200Y-85044171D01*
X137322200Y-85044171D02*
X137084104Y-84996552D01*
X137084104Y-84996552D02*
X136893628Y-84996552D01*
X136893628Y-84996552D02*
X136655533Y-85044171D01*
X136655533Y-85044171D02*
X136512676Y-85091790D01*
X136512676Y-85091790D02*
X136417438Y-85139409D01*
X136417438Y-85139409D02*
X136274580Y-85234647D01*
X136274580Y-85234647D02*
X136226961Y-85282266D01*
X136465057Y-84567980D02*
X136417438Y-84520361D01*
X136417438Y-84520361D02*
X136369819Y-84425123D01*
X136369819Y-84425123D02*
X136369819Y-84187028D01*
X136369819Y-84187028D02*
X136417438Y-84091790D01*
X136417438Y-84091790D02*
X136465057Y-84044171D01*
X136465057Y-84044171D02*
X136560295Y-83996552D01*
X136560295Y-83996552D02*
X136655533Y-83996552D01*
X136655533Y-83996552D02*
X136798390Y-84044171D01*
X136798390Y-84044171D02*
X137369819Y-84615599D01*
X137369819Y-84615599D02*
X137369819Y-83996552D01*
X136369819Y-83377504D02*
X136369819Y-83282266D01*
X136369819Y-83282266D02*
X136417438Y-83187028D01*
X136417438Y-83187028D02*
X136465057Y-83139409D01*
X136465057Y-83139409D02*
X136560295Y-83091790D01*
X136560295Y-83091790D02*
X136750771Y-83044171D01*
X136750771Y-83044171D02*
X136988866Y-83044171D01*
X136988866Y-83044171D02*
X137179342Y-83091790D01*
X137179342Y-83091790D02*
X137274580Y-83139409D01*
X137274580Y-83139409D02*
X137322200Y-83187028D01*
X137322200Y-83187028D02*
X137369819Y-83282266D01*
X137369819Y-83282266D02*
X137369819Y-83377504D01*
X137369819Y-83377504D02*
X137322200Y-83472742D01*
X137322200Y-83472742D02*
X137274580Y-83520361D01*
X137274580Y-83520361D02*
X137179342Y-83567980D01*
X137179342Y-83567980D02*
X136988866Y-83615599D01*
X136988866Y-83615599D02*
X136750771Y-83615599D01*
X136750771Y-83615599D02*
X136560295Y-83567980D01*
X136560295Y-83567980D02*
X136465057Y-83520361D01*
X136465057Y-83520361D02*
X136417438Y-83472742D01*
X136417438Y-83472742D02*
X136369819Y-83377504D01*
X136465057Y-82663218D02*
X136417438Y-82615599D01*
X136417438Y-82615599D02*
X136369819Y-82520361D01*
X136369819Y-82520361D02*
X136369819Y-82282266D01*
X136369819Y-82282266D02*
X136417438Y-82187028D01*
X136417438Y-82187028D02*
X136465057Y-82139409D01*
X136465057Y-82139409D02*
X136560295Y-82091790D01*
X136560295Y-82091790D02*
X136655533Y-82091790D01*
X136655533Y-82091790D02*
X136798390Y-82139409D01*
X136798390Y-82139409D02*
X137369819Y-82710837D01*
X137369819Y-82710837D02*
X137369819Y-82091790D01*
X136703152Y-81234647D02*
X137369819Y-81234647D01*
X136322200Y-81472742D02*
X137036485Y-81710837D01*
X137036485Y-81710837D02*
X137036485Y-81091790D01*
X137369819Y-79948932D02*
X136369819Y-79948932D01*
X136846009Y-79948932D02*
X136846009Y-79377504D01*
X137369819Y-79377504D02*
X136369819Y-79377504D01*
X137369819Y-78329885D02*
X136893628Y-78663218D01*
X137369819Y-78901313D02*
X136369819Y-78901313D01*
X136369819Y-78901313D02*
X136369819Y-78520361D01*
X136369819Y-78520361D02*
X136417438Y-78425123D01*
X136417438Y-78425123D02*
X136465057Y-78377504D01*
X136465057Y-78377504D02*
X136560295Y-78329885D01*
X136560295Y-78329885D02*
X136703152Y-78329885D01*
X136703152Y-78329885D02*
X136798390Y-78377504D01*
X136798390Y-78377504D02*
X136846009Y-78425123D01*
X136846009Y-78425123D02*
X136893628Y-78520361D01*
X136893628Y-78520361D02*
X136893628Y-78901313D01*
X137084104Y-77948932D02*
X137084104Y-77472742D01*
X137369819Y-78044170D02*
X136369819Y-77710837D01*
X136369819Y-77710837D02*
X137369819Y-77377504D01*
X137274580Y-77044170D02*
X137322200Y-76996551D01*
X137322200Y-76996551D02*
X137369819Y-77044170D01*
X137369819Y-77044170D02*
X137322200Y-77091789D01*
X137322200Y-77091789D02*
X137274580Y-77044170D01*
X137274580Y-77044170D02*
X137369819Y-77044170D01*
X136988866Y-77044170D02*
X136417438Y-77091789D01*
X136417438Y-77091789D02*
X136369819Y-77044170D01*
X136369819Y-77044170D02*
X136417438Y-76996551D01*
X136417438Y-76996551D02*
X136988866Y-77044170D01*
X136988866Y-77044170D02*
X136369819Y-77044170D01*
X129822200Y-138210839D02*
X129869819Y-138067982D01*
X129869819Y-138067982D02*
X129869819Y-137829887D01*
X129869819Y-137829887D02*
X129822200Y-137734649D01*
X129822200Y-137734649D02*
X129774580Y-137687030D01*
X129774580Y-137687030D02*
X129679342Y-137639411D01*
X129679342Y-137639411D02*
X129584104Y-137639411D01*
X129584104Y-137639411D02*
X129488866Y-137687030D01*
X129488866Y-137687030D02*
X129441247Y-137734649D01*
X129441247Y-137734649D02*
X129393628Y-137829887D01*
X129393628Y-137829887D02*
X129346009Y-138020363D01*
X129346009Y-138020363D02*
X129298390Y-138115601D01*
X129298390Y-138115601D02*
X129250771Y-138163220D01*
X129250771Y-138163220D02*
X129155533Y-138210839D01*
X129155533Y-138210839D02*
X129060295Y-138210839D01*
X129060295Y-138210839D02*
X128965057Y-138163220D01*
X128965057Y-138163220D02*
X128917438Y-138115601D01*
X128917438Y-138115601D02*
X128869819Y-138020363D01*
X128869819Y-138020363D02*
X128869819Y-137782268D01*
X128869819Y-137782268D02*
X128917438Y-137639411D01*
X129869819Y-136734649D02*
X129869819Y-137210839D01*
X129869819Y-137210839D02*
X128869819Y-137210839D01*
X128869819Y-136210839D02*
X128869819Y-136020363D01*
X128869819Y-136020363D02*
X128917438Y-135925125D01*
X128917438Y-135925125D02*
X129012676Y-135829887D01*
X129012676Y-135829887D02*
X129203152Y-135782268D01*
X129203152Y-135782268D02*
X129536485Y-135782268D01*
X129536485Y-135782268D02*
X129726961Y-135829887D01*
X129726961Y-135829887D02*
X129822200Y-135925125D01*
X129822200Y-135925125D02*
X129869819Y-136020363D01*
X129869819Y-136020363D02*
X129869819Y-136210839D01*
X129869819Y-136210839D02*
X129822200Y-136306077D01*
X129822200Y-136306077D02*
X129726961Y-136401315D01*
X129726961Y-136401315D02*
X129536485Y-136448934D01*
X129536485Y-136448934D02*
X129203152Y-136448934D01*
X129203152Y-136448934D02*
X129012676Y-136401315D01*
X129012676Y-136401315D02*
X128917438Y-136306077D01*
X128917438Y-136306077D02*
X128869819Y-136210839D01*
X128869819Y-135496553D02*
X128869819Y-134925125D01*
X129869819Y-135210839D02*
X128869819Y-135210839D01*
X129203152Y-134639410D02*
X129203152Y-133925125D01*
X128774580Y-134353696D02*
X130060295Y-134639410D01*
X129631723Y-134020363D02*
X129631723Y-134734648D01*
X130060295Y-134306077D02*
X128774580Y-134020363D01*
X128869819Y-133687029D02*
X128869819Y-133067982D01*
X128869819Y-133067982D02*
X129250771Y-133401315D01*
X129250771Y-133401315D02*
X129250771Y-133258458D01*
X129250771Y-133258458D02*
X129298390Y-133163220D01*
X129298390Y-133163220D02*
X129346009Y-133115601D01*
X129346009Y-133115601D02*
X129441247Y-133067982D01*
X129441247Y-133067982D02*
X129679342Y-133067982D01*
X129679342Y-133067982D02*
X129774580Y-133115601D01*
X129774580Y-133115601D02*
X129822200Y-133163220D01*
X129822200Y-133163220D02*
X129869819Y-133258458D01*
X129869819Y-133258458D02*
X129869819Y-133544172D01*
X129869819Y-133544172D02*
X129822200Y-133639410D01*
X129822200Y-133639410D02*
X129774580Y-133687029D01*
X129488866Y-132639410D02*
X129488866Y-131877506D01*
X128869819Y-131496553D02*
X128869819Y-130877506D01*
X128869819Y-130877506D02*
X129250771Y-131210839D01*
X129250771Y-131210839D02*
X129250771Y-131067982D01*
X129250771Y-131067982D02*
X129298390Y-130972744D01*
X129298390Y-130972744D02*
X129346009Y-130925125D01*
X129346009Y-130925125D02*
X129441247Y-130877506D01*
X129441247Y-130877506D02*
X129679342Y-130877506D01*
X129679342Y-130877506D02*
X129774580Y-130925125D01*
X129774580Y-130925125D02*
X129822200Y-130972744D01*
X129822200Y-130972744D02*
X129869819Y-131067982D01*
X129869819Y-131067982D02*
X129869819Y-131353696D01*
X129869819Y-131353696D02*
X129822200Y-131448934D01*
X129822200Y-131448934D02*
X129774580Y-131496553D01*
X129346009Y-129687029D02*
X129346009Y-129353696D01*
X129869819Y-129210839D02*
X129869819Y-129687029D01*
X129869819Y-129687029D02*
X128869819Y-129687029D01*
X128869819Y-129687029D02*
X128869819Y-129210839D01*
X128869819Y-128877505D02*
X129869819Y-128210839D01*
X128869819Y-128210839D02*
X129869819Y-128877505D01*
X128869819Y-127972743D02*
X128869819Y-127401315D01*
X129869819Y-127687029D02*
X128869819Y-127687029D01*
X128869819Y-126401314D02*
X128869819Y-125782267D01*
X128869819Y-125782267D02*
X129250771Y-126115600D01*
X129250771Y-126115600D02*
X129250771Y-125972743D01*
X129250771Y-125972743D02*
X129298390Y-125877505D01*
X129298390Y-125877505D02*
X129346009Y-125829886D01*
X129346009Y-125829886D02*
X129441247Y-125782267D01*
X129441247Y-125782267D02*
X129679342Y-125782267D01*
X129679342Y-125782267D02*
X129774580Y-125829886D01*
X129774580Y-125829886D02*
X129822200Y-125877505D01*
X129822200Y-125877505D02*
X129869819Y-125972743D01*
X129869819Y-125972743D02*
X129869819Y-126258457D01*
X129869819Y-126258457D02*
X129822200Y-126353695D01*
X129822200Y-126353695D02*
X129774580Y-126401314D01*
X128965057Y-125401314D02*
X128917438Y-125353695D01*
X128917438Y-125353695D02*
X128869819Y-125258457D01*
X128869819Y-125258457D02*
X128869819Y-125020362D01*
X128869819Y-125020362D02*
X128917438Y-124925124D01*
X128917438Y-124925124D02*
X128965057Y-124877505D01*
X128965057Y-124877505D02*
X129060295Y-124829886D01*
X129060295Y-124829886D02*
X129155533Y-124829886D01*
X129155533Y-124829886D02*
X129298390Y-124877505D01*
X129298390Y-124877505D02*
X129869819Y-125448933D01*
X129869819Y-125448933D02*
X129869819Y-124829886D01*
X129869819Y-124401314D02*
X128869819Y-124401314D01*
X129869819Y-123829886D02*
X129298390Y-124258457D01*
X128869819Y-123829886D02*
X129441247Y-124401314D01*
X129346009Y-123067981D02*
X129393628Y-122925124D01*
X129393628Y-122925124D02*
X129441247Y-122877505D01*
X129441247Y-122877505D02*
X129536485Y-122829886D01*
X129536485Y-122829886D02*
X129679342Y-122829886D01*
X129679342Y-122829886D02*
X129774580Y-122877505D01*
X129774580Y-122877505D02*
X129822200Y-122925124D01*
X129822200Y-122925124D02*
X129869819Y-123020362D01*
X129869819Y-123020362D02*
X129869819Y-123401314D01*
X129869819Y-123401314D02*
X128869819Y-123401314D01*
X128869819Y-123401314D02*
X128869819Y-123067981D01*
X128869819Y-123067981D02*
X128917438Y-122972743D01*
X128917438Y-122972743D02*
X128965057Y-122925124D01*
X128965057Y-122925124D02*
X129060295Y-122877505D01*
X129060295Y-122877505D02*
X129155533Y-122877505D01*
X129155533Y-122877505D02*
X129250771Y-122925124D01*
X129250771Y-122925124D02*
X129298390Y-122972743D01*
X129298390Y-122972743D02*
X129346009Y-123067981D01*
X129346009Y-123067981D02*
X129346009Y-123401314D01*
X130250771Y-121353695D02*
X130203152Y-121401314D01*
X130203152Y-121401314D02*
X130060295Y-121496552D01*
X130060295Y-121496552D02*
X129965057Y-121544171D01*
X129965057Y-121544171D02*
X129822200Y-121591790D01*
X129822200Y-121591790D02*
X129584104Y-121639409D01*
X129584104Y-121639409D02*
X129393628Y-121639409D01*
X129393628Y-121639409D02*
X129155533Y-121591790D01*
X129155533Y-121591790D02*
X129012676Y-121544171D01*
X129012676Y-121544171D02*
X128917438Y-121496552D01*
X128917438Y-121496552D02*
X128774580Y-121401314D01*
X128774580Y-121401314D02*
X128726961Y-121353695D01*
X129869819Y-120972742D02*
X128869819Y-120972742D01*
X128869819Y-120972742D02*
X128869819Y-120591790D01*
X128869819Y-120591790D02*
X128917438Y-120496552D01*
X128917438Y-120496552D02*
X128965057Y-120448933D01*
X128965057Y-120448933D02*
X129060295Y-120401314D01*
X129060295Y-120401314D02*
X129203152Y-120401314D01*
X129203152Y-120401314D02*
X129298390Y-120448933D01*
X129298390Y-120448933D02*
X129346009Y-120496552D01*
X129346009Y-120496552D02*
X129393628Y-120591790D01*
X129393628Y-120591790D02*
X129393628Y-120972742D01*
X129869819Y-119448933D02*
X129869819Y-120020361D01*
X129869819Y-119734647D02*
X128869819Y-119734647D01*
X128869819Y-119734647D02*
X129012676Y-119829885D01*
X129012676Y-119829885D02*
X129107914Y-119925123D01*
X129107914Y-119925123D02*
X129155533Y-120020361D01*
X129822200Y-118972742D02*
X129869819Y-118972742D01*
X129869819Y-118972742D02*
X129965057Y-119020361D01*
X129965057Y-119020361D02*
X130012676Y-119067980D01*
X129869819Y-118544171D02*
X128869819Y-118544171D01*
X128869819Y-118544171D02*
X128869819Y-118163219D01*
X128869819Y-118163219D02*
X128917438Y-118067981D01*
X128917438Y-118067981D02*
X128965057Y-118020362D01*
X128965057Y-118020362D02*
X129060295Y-117972743D01*
X129060295Y-117972743D02*
X129203152Y-117972743D01*
X129203152Y-117972743D02*
X129298390Y-118020362D01*
X129298390Y-118020362D02*
X129346009Y-118067981D01*
X129346009Y-118067981D02*
X129393628Y-118163219D01*
X129393628Y-118163219D02*
X129393628Y-118544171D01*
X128965057Y-117591790D02*
X128917438Y-117544171D01*
X128917438Y-117544171D02*
X128869819Y-117448933D01*
X128869819Y-117448933D02*
X128869819Y-117210838D01*
X128869819Y-117210838D02*
X128917438Y-117115600D01*
X128917438Y-117115600D02*
X128965057Y-117067981D01*
X128965057Y-117067981D02*
X129060295Y-117020362D01*
X129060295Y-117020362D02*
X129155533Y-117020362D01*
X129155533Y-117020362D02*
X129298390Y-117067981D01*
X129298390Y-117067981D02*
X129869819Y-117639409D01*
X129869819Y-117639409D02*
X129869819Y-117020362D01*
X130250771Y-116687028D02*
X130203152Y-116639409D01*
X130203152Y-116639409D02*
X130060295Y-116544171D01*
X130060295Y-116544171D02*
X129965057Y-116496552D01*
X129965057Y-116496552D02*
X129822200Y-116448933D01*
X129822200Y-116448933D02*
X129584104Y-116401314D01*
X129584104Y-116401314D02*
X129393628Y-116401314D01*
X129393628Y-116401314D02*
X129155533Y-116448933D01*
X129155533Y-116448933D02*
X129012676Y-116496552D01*
X129012676Y-116496552D02*
X128917438Y-116544171D01*
X128917438Y-116544171D02*
X128774580Y-116639409D01*
X128774580Y-116639409D02*
X128726961Y-116687028D01*
X70322200Y-138210839D02*
X70369819Y-138067982D01*
X70369819Y-138067982D02*
X70369819Y-137829887D01*
X70369819Y-137829887D02*
X70322200Y-137734649D01*
X70322200Y-137734649D02*
X70274580Y-137687030D01*
X70274580Y-137687030D02*
X70179342Y-137639411D01*
X70179342Y-137639411D02*
X70084104Y-137639411D01*
X70084104Y-137639411D02*
X69988866Y-137687030D01*
X69988866Y-137687030D02*
X69941247Y-137734649D01*
X69941247Y-137734649D02*
X69893628Y-137829887D01*
X69893628Y-137829887D02*
X69846009Y-138020363D01*
X69846009Y-138020363D02*
X69798390Y-138115601D01*
X69798390Y-138115601D02*
X69750771Y-138163220D01*
X69750771Y-138163220D02*
X69655533Y-138210839D01*
X69655533Y-138210839D02*
X69560295Y-138210839D01*
X69560295Y-138210839D02*
X69465057Y-138163220D01*
X69465057Y-138163220D02*
X69417438Y-138115601D01*
X69417438Y-138115601D02*
X69369819Y-138020363D01*
X69369819Y-138020363D02*
X69369819Y-137782268D01*
X69369819Y-137782268D02*
X69417438Y-137639411D01*
X70369819Y-136734649D02*
X70369819Y-137210839D01*
X70369819Y-137210839D02*
X69369819Y-137210839D01*
X69369819Y-136210839D02*
X69369819Y-136020363D01*
X69369819Y-136020363D02*
X69417438Y-135925125D01*
X69417438Y-135925125D02*
X69512676Y-135829887D01*
X69512676Y-135829887D02*
X69703152Y-135782268D01*
X69703152Y-135782268D02*
X70036485Y-135782268D01*
X70036485Y-135782268D02*
X70226961Y-135829887D01*
X70226961Y-135829887D02*
X70322200Y-135925125D01*
X70322200Y-135925125D02*
X70369819Y-136020363D01*
X70369819Y-136020363D02*
X70369819Y-136210839D01*
X70369819Y-136210839D02*
X70322200Y-136306077D01*
X70322200Y-136306077D02*
X70226961Y-136401315D01*
X70226961Y-136401315D02*
X70036485Y-136448934D01*
X70036485Y-136448934D02*
X69703152Y-136448934D01*
X69703152Y-136448934D02*
X69512676Y-136401315D01*
X69512676Y-136401315D02*
X69417438Y-136306077D01*
X69417438Y-136306077D02*
X69369819Y-136210839D01*
X69369819Y-135496553D02*
X69369819Y-134925125D01*
X70369819Y-135210839D02*
X69369819Y-135210839D01*
X69703152Y-134639410D02*
X69703152Y-133925125D01*
X69274580Y-134353696D02*
X70560295Y-134639410D01*
X70131723Y-134020363D02*
X70131723Y-134734648D01*
X70560295Y-134306077D02*
X69274580Y-134020363D01*
X69369819Y-133687029D02*
X69369819Y-133067982D01*
X69369819Y-133067982D02*
X69750771Y-133401315D01*
X69750771Y-133401315D02*
X69750771Y-133258458D01*
X69750771Y-133258458D02*
X69798390Y-133163220D01*
X69798390Y-133163220D02*
X69846009Y-133115601D01*
X69846009Y-133115601D02*
X69941247Y-133067982D01*
X69941247Y-133067982D02*
X70179342Y-133067982D01*
X70179342Y-133067982D02*
X70274580Y-133115601D01*
X70274580Y-133115601D02*
X70322200Y-133163220D01*
X70322200Y-133163220D02*
X70369819Y-133258458D01*
X70369819Y-133258458D02*
X70369819Y-133544172D01*
X70369819Y-133544172D02*
X70322200Y-133639410D01*
X70322200Y-133639410D02*
X70274580Y-133687029D01*
X69988866Y-132639410D02*
X69988866Y-131877506D01*
X69465057Y-131448934D02*
X69417438Y-131401315D01*
X69417438Y-131401315D02*
X69369819Y-131306077D01*
X69369819Y-131306077D02*
X69369819Y-131067982D01*
X69369819Y-131067982D02*
X69417438Y-130972744D01*
X69417438Y-130972744D02*
X69465057Y-130925125D01*
X69465057Y-130925125D02*
X69560295Y-130877506D01*
X69560295Y-130877506D02*
X69655533Y-130877506D01*
X69655533Y-130877506D02*
X69798390Y-130925125D01*
X69798390Y-130925125D02*
X70369819Y-131496553D01*
X70369819Y-131496553D02*
X70369819Y-130877506D01*
X69846009Y-129687029D02*
X69846009Y-129353696D01*
X70369819Y-129210839D02*
X70369819Y-129687029D01*
X70369819Y-129687029D02*
X69369819Y-129687029D01*
X69369819Y-129687029D02*
X69369819Y-129210839D01*
X69369819Y-128877505D02*
X70369819Y-128210839D01*
X69369819Y-128210839D02*
X70369819Y-128877505D01*
X69369819Y-127972743D02*
X69369819Y-127401315D01*
X70369819Y-127687029D02*
X69369819Y-127687029D01*
X69369819Y-126401314D02*
X69369819Y-125782267D01*
X69369819Y-125782267D02*
X69750771Y-126115600D01*
X69750771Y-126115600D02*
X69750771Y-125972743D01*
X69750771Y-125972743D02*
X69798390Y-125877505D01*
X69798390Y-125877505D02*
X69846009Y-125829886D01*
X69846009Y-125829886D02*
X69941247Y-125782267D01*
X69941247Y-125782267D02*
X70179342Y-125782267D01*
X70179342Y-125782267D02*
X70274580Y-125829886D01*
X70274580Y-125829886D02*
X70322200Y-125877505D01*
X70322200Y-125877505D02*
X70369819Y-125972743D01*
X70369819Y-125972743D02*
X70369819Y-126258457D01*
X70369819Y-126258457D02*
X70322200Y-126353695D01*
X70322200Y-126353695D02*
X70274580Y-126401314D01*
X69465057Y-125401314D02*
X69417438Y-125353695D01*
X69417438Y-125353695D02*
X69369819Y-125258457D01*
X69369819Y-125258457D02*
X69369819Y-125020362D01*
X69369819Y-125020362D02*
X69417438Y-124925124D01*
X69417438Y-124925124D02*
X69465057Y-124877505D01*
X69465057Y-124877505D02*
X69560295Y-124829886D01*
X69560295Y-124829886D02*
X69655533Y-124829886D01*
X69655533Y-124829886D02*
X69798390Y-124877505D01*
X69798390Y-124877505D02*
X70369819Y-125448933D01*
X70369819Y-125448933D02*
X70369819Y-124829886D01*
X70369819Y-124401314D02*
X69369819Y-124401314D01*
X70369819Y-123829886D02*
X69798390Y-124258457D01*
X69369819Y-123829886D02*
X69941247Y-124401314D01*
X69846009Y-123067981D02*
X69893628Y-122925124D01*
X69893628Y-122925124D02*
X69941247Y-122877505D01*
X69941247Y-122877505D02*
X70036485Y-122829886D01*
X70036485Y-122829886D02*
X70179342Y-122829886D01*
X70179342Y-122829886D02*
X70274580Y-122877505D01*
X70274580Y-122877505D02*
X70322200Y-122925124D01*
X70322200Y-122925124D02*
X70369819Y-123020362D01*
X70369819Y-123020362D02*
X70369819Y-123401314D01*
X70369819Y-123401314D02*
X69369819Y-123401314D01*
X69369819Y-123401314D02*
X69369819Y-123067981D01*
X69369819Y-123067981D02*
X69417438Y-122972743D01*
X69417438Y-122972743D02*
X69465057Y-122925124D01*
X69465057Y-122925124D02*
X69560295Y-122877505D01*
X69560295Y-122877505D02*
X69655533Y-122877505D01*
X69655533Y-122877505D02*
X69750771Y-122925124D01*
X69750771Y-122925124D02*
X69798390Y-122972743D01*
X69798390Y-122972743D02*
X69846009Y-123067981D01*
X69846009Y-123067981D02*
X69846009Y-123401314D01*
X70750771Y-121353695D02*
X70703152Y-121401314D01*
X70703152Y-121401314D02*
X70560295Y-121496552D01*
X70560295Y-121496552D02*
X70465057Y-121544171D01*
X70465057Y-121544171D02*
X70322200Y-121591790D01*
X70322200Y-121591790D02*
X70084104Y-121639409D01*
X70084104Y-121639409D02*
X69893628Y-121639409D01*
X69893628Y-121639409D02*
X69655533Y-121591790D01*
X69655533Y-121591790D02*
X69512676Y-121544171D01*
X69512676Y-121544171D02*
X69417438Y-121496552D01*
X69417438Y-121496552D02*
X69274580Y-121401314D01*
X69274580Y-121401314D02*
X69226961Y-121353695D01*
X70369819Y-120972742D02*
X69369819Y-120972742D01*
X69369819Y-120972742D02*
X69369819Y-120591790D01*
X69369819Y-120591790D02*
X69417438Y-120496552D01*
X69417438Y-120496552D02*
X69465057Y-120448933D01*
X69465057Y-120448933D02*
X69560295Y-120401314D01*
X69560295Y-120401314D02*
X69703152Y-120401314D01*
X69703152Y-120401314D02*
X69798390Y-120448933D01*
X69798390Y-120448933D02*
X69846009Y-120496552D01*
X69846009Y-120496552D02*
X69893628Y-120591790D01*
X69893628Y-120591790D02*
X69893628Y-120972742D01*
X70369819Y-119448933D02*
X70369819Y-120020361D01*
X70369819Y-119734647D02*
X69369819Y-119734647D01*
X69369819Y-119734647D02*
X69512676Y-119829885D01*
X69512676Y-119829885D02*
X69607914Y-119925123D01*
X69607914Y-119925123D02*
X69655533Y-120020361D01*
X70322200Y-118972742D02*
X70369819Y-118972742D01*
X70369819Y-118972742D02*
X70465057Y-119020361D01*
X70465057Y-119020361D02*
X70512676Y-119067980D01*
X70369819Y-118544171D02*
X69369819Y-118544171D01*
X69369819Y-118544171D02*
X69369819Y-118163219D01*
X69369819Y-118163219D02*
X69417438Y-118067981D01*
X69417438Y-118067981D02*
X69465057Y-118020362D01*
X69465057Y-118020362D02*
X69560295Y-117972743D01*
X69560295Y-117972743D02*
X69703152Y-117972743D01*
X69703152Y-117972743D02*
X69798390Y-118020362D01*
X69798390Y-118020362D02*
X69846009Y-118067981D01*
X69846009Y-118067981D02*
X69893628Y-118163219D01*
X69893628Y-118163219D02*
X69893628Y-118544171D01*
X69465057Y-117591790D02*
X69417438Y-117544171D01*
X69417438Y-117544171D02*
X69369819Y-117448933D01*
X69369819Y-117448933D02*
X69369819Y-117210838D01*
X69369819Y-117210838D02*
X69417438Y-117115600D01*
X69417438Y-117115600D02*
X69465057Y-117067981D01*
X69465057Y-117067981D02*
X69560295Y-117020362D01*
X69560295Y-117020362D02*
X69655533Y-117020362D01*
X69655533Y-117020362D02*
X69798390Y-117067981D01*
X69798390Y-117067981D02*
X70369819Y-117639409D01*
X70369819Y-117639409D02*
X70369819Y-117020362D01*
X70750771Y-116687028D02*
X70703152Y-116639409D01*
X70703152Y-116639409D02*
X70560295Y-116544171D01*
X70560295Y-116544171D02*
X70465057Y-116496552D01*
X70465057Y-116496552D02*
X70322200Y-116448933D01*
X70322200Y-116448933D02*
X70084104Y-116401314D01*
X70084104Y-116401314D02*
X69893628Y-116401314D01*
X69893628Y-116401314D02*
X69655533Y-116448933D01*
X69655533Y-116448933D02*
X69512676Y-116496552D01*
X69512676Y-116496552D02*
X69417438Y-116544171D01*
X69417438Y-116544171D02*
X69274580Y-116639409D01*
X69274580Y-116639409D02*
X69226961Y-116687028D01*
X112741541Y-59869819D02*
X113408207Y-59869819D01*
X113408207Y-59869819D02*
X112979636Y-60869819D01*
X114217731Y-60203152D02*
X114217731Y-60869819D01*
X113979636Y-59822200D02*
X113741541Y-60536485D01*
X113741541Y-60536485D02*
X114360588Y-60536485D01*
X115265350Y-60869819D02*
X114693922Y-60869819D01*
X114979636Y-60869819D02*
X114979636Y-59869819D01*
X114979636Y-59869819D02*
X114884398Y-60012676D01*
X114884398Y-60012676D02*
X114789160Y-60107914D01*
X114789160Y-60107914D02*
X114693922Y-60155533D01*
X115598684Y-59869819D02*
X116217731Y-59869819D01*
X116217731Y-59869819D02*
X115884398Y-60250771D01*
X115884398Y-60250771D02*
X116027255Y-60250771D01*
X116027255Y-60250771D02*
X116122493Y-60298390D01*
X116122493Y-60298390D02*
X116170112Y-60346009D01*
X116170112Y-60346009D02*
X116217731Y-60441247D01*
X116217731Y-60441247D02*
X116217731Y-60679342D01*
X116217731Y-60679342D02*
X116170112Y-60774580D01*
X116170112Y-60774580D02*
X116122493Y-60822200D01*
X116122493Y-60822200D02*
X116027255Y-60869819D01*
X116027255Y-60869819D02*
X115741541Y-60869819D01*
X115741541Y-60869819D02*
X115646303Y-60822200D01*
X115646303Y-60822200D02*
X115598684Y-60774580D01*
X116693922Y-60869819D02*
X116884398Y-60869819D01*
X116884398Y-60869819D02*
X116979636Y-60822200D01*
X116979636Y-60822200D02*
X117027255Y-60774580D01*
X117027255Y-60774580D02*
X117122493Y-60631723D01*
X117122493Y-60631723D02*
X117170112Y-60441247D01*
X117170112Y-60441247D02*
X117170112Y-60060295D01*
X117170112Y-60060295D02*
X117122493Y-59965057D01*
X117122493Y-59965057D02*
X117074874Y-59917438D01*
X117074874Y-59917438D02*
X116979636Y-59869819D01*
X116979636Y-59869819D02*
X116789160Y-59869819D01*
X116789160Y-59869819D02*
X116693922Y-59917438D01*
X116693922Y-59917438D02*
X116646303Y-59965057D01*
X116646303Y-59965057D02*
X116598684Y-60060295D01*
X116598684Y-60060295D02*
X116598684Y-60298390D01*
X116598684Y-60298390D02*
X116646303Y-60393628D01*
X116646303Y-60393628D02*
X116693922Y-60441247D01*
X116693922Y-60441247D02*
X116789160Y-60488866D01*
X116789160Y-60488866D02*
X116979636Y-60488866D01*
X116979636Y-60488866D02*
X117074874Y-60441247D01*
X117074874Y-60441247D02*
X117122493Y-60393628D01*
X117122493Y-60393628D02*
X117170112Y-60298390D01*
X129822200Y-110210839D02*
X129869819Y-110067982D01*
X129869819Y-110067982D02*
X129869819Y-109829887D01*
X129869819Y-109829887D02*
X129822200Y-109734649D01*
X129822200Y-109734649D02*
X129774580Y-109687030D01*
X129774580Y-109687030D02*
X129679342Y-109639411D01*
X129679342Y-109639411D02*
X129584104Y-109639411D01*
X129584104Y-109639411D02*
X129488866Y-109687030D01*
X129488866Y-109687030D02*
X129441247Y-109734649D01*
X129441247Y-109734649D02*
X129393628Y-109829887D01*
X129393628Y-109829887D02*
X129346009Y-110020363D01*
X129346009Y-110020363D02*
X129298390Y-110115601D01*
X129298390Y-110115601D02*
X129250771Y-110163220D01*
X129250771Y-110163220D02*
X129155533Y-110210839D01*
X129155533Y-110210839D02*
X129060295Y-110210839D01*
X129060295Y-110210839D02*
X128965057Y-110163220D01*
X128965057Y-110163220D02*
X128917438Y-110115601D01*
X128917438Y-110115601D02*
X128869819Y-110020363D01*
X128869819Y-110020363D02*
X128869819Y-109782268D01*
X128869819Y-109782268D02*
X128917438Y-109639411D01*
X129869819Y-108734649D02*
X129869819Y-109210839D01*
X129869819Y-109210839D02*
X128869819Y-109210839D01*
X128869819Y-108210839D02*
X128869819Y-108020363D01*
X128869819Y-108020363D02*
X128917438Y-107925125D01*
X128917438Y-107925125D02*
X129012676Y-107829887D01*
X129012676Y-107829887D02*
X129203152Y-107782268D01*
X129203152Y-107782268D02*
X129536485Y-107782268D01*
X129536485Y-107782268D02*
X129726961Y-107829887D01*
X129726961Y-107829887D02*
X129822200Y-107925125D01*
X129822200Y-107925125D02*
X129869819Y-108020363D01*
X129869819Y-108020363D02*
X129869819Y-108210839D01*
X129869819Y-108210839D02*
X129822200Y-108306077D01*
X129822200Y-108306077D02*
X129726961Y-108401315D01*
X129726961Y-108401315D02*
X129536485Y-108448934D01*
X129536485Y-108448934D02*
X129203152Y-108448934D01*
X129203152Y-108448934D02*
X129012676Y-108401315D01*
X129012676Y-108401315D02*
X128917438Y-108306077D01*
X128917438Y-108306077D02*
X128869819Y-108210839D01*
X128869819Y-107496553D02*
X128869819Y-106925125D01*
X129869819Y-107210839D02*
X128869819Y-107210839D01*
X129203152Y-106639410D02*
X129203152Y-105925125D01*
X128774580Y-106353696D02*
X130060295Y-106639410D01*
X129631723Y-106020363D02*
X129631723Y-106734648D01*
X130060295Y-106306077D02*
X128774580Y-106020363D01*
X128869819Y-105687029D02*
X128869819Y-105067982D01*
X128869819Y-105067982D02*
X129250771Y-105401315D01*
X129250771Y-105401315D02*
X129250771Y-105258458D01*
X129250771Y-105258458D02*
X129298390Y-105163220D01*
X129298390Y-105163220D02*
X129346009Y-105115601D01*
X129346009Y-105115601D02*
X129441247Y-105067982D01*
X129441247Y-105067982D02*
X129679342Y-105067982D01*
X129679342Y-105067982D02*
X129774580Y-105115601D01*
X129774580Y-105115601D02*
X129822200Y-105163220D01*
X129822200Y-105163220D02*
X129869819Y-105258458D01*
X129869819Y-105258458D02*
X129869819Y-105544172D01*
X129869819Y-105544172D02*
X129822200Y-105639410D01*
X129822200Y-105639410D02*
X129774580Y-105687029D01*
X129488866Y-104639410D02*
X129488866Y-103877506D01*
X129869819Y-102877506D02*
X129869819Y-103448934D01*
X129869819Y-103163220D02*
X128869819Y-103163220D01*
X128869819Y-103163220D02*
X129012676Y-103258458D01*
X129012676Y-103258458D02*
X129107914Y-103353696D01*
X129107914Y-103353696D02*
X129155533Y-103448934D01*
X129822200Y-101734648D02*
X129869819Y-101591791D01*
X129869819Y-101591791D02*
X129869819Y-101353696D01*
X129869819Y-101353696D02*
X129822200Y-101258458D01*
X129822200Y-101258458D02*
X129774580Y-101210839D01*
X129774580Y-101210839D02*
X129679342Y-101163220D01*
X129679342Y-101163220D02*
X129584104Y-101163220D01*
X129584104Y-101163220D02*
X129488866Y-101210839D01*
X129488866Y-101210839D02*
X129441247Y-101258458D01*
X129441247Y-101258458D02*
X129393628Y-101353696D01*
X129393628Y-101353696D02*
X129346009Y-101544172D01*
X129346009Y-101544172D02*
X129298390Y-101639410D01*
X129298390Y-101639410D02*
X129250771Y-101687029D01*
X129250771Y-101687029D02*
X129155533Y-101734648D01*
X129155533Y-101734648D02*
X129060295Y-101734648D01*
X129060295Y-101734648D02*
X128965057Y-101687029D01*
X128965057Y-101687029D02*
X128917438Y-101639410D01*
X128917438Y-101639410D02*
X128869819Y-101544172D01*
X128869819Y-101544172D02*
X128869819Y-101306077D01*
X128869819Y-101306077D02*
X128917438Y-101163220D01*
X128869819Y-100734648D02*
X129679342Y-100734648D01*
X129679342Y-100734648D02*
X129774580Y-100687029D01*
X129774580Y-100687029D02*
X129822200Y-100639410D01*
X129822200Y-100639410D02*
X129869819Y-100544172D01*
X129869819Y-100544172D02*
X129869819Y-100353696D01*
X129869819Y-100353696D02*
X129822200Y-100258458D01*
X129822200Y-100258458D02*
X129774580Y-100210839D01*
X129774580Y-100210839D02*
X129679342Y-100163220D01*
X129679342Y-100163220D02*
X128869819Y-100163220D01*
X129346009Y-99353696D02*
X129393628Y-99210839D01*
X129393628Y-99210839D02*
X129441247Y-99163220D01*
X129441247Y-99163220D02*
X129536485Y-99115601D01*
X129536485Y-99115601D02*
X129679342Y-99115601D01*
X129679342Y-99115601D02*
X129774580Y-99163220D01*
X129774580Y-99163220D02*
X129822200Y-99210839D01*
X129822200Y-99210839D02*
X129869819Y-99306077D01*
X129869819Y-99306077D02*
X129869819Y-99687029D01*
X129869819Y-99687029D02*
X128869819Y-99687029D01*
X128869819Y-99687029D02*
X128869819Y-99353696D01*
X128869819Y-99353696D02*
X128917438Y-99258458D01*
X128917438Y-99258458D02*
X128965057Y-99210839D01*
X128965057Y-99210839D02*
X129060295Y-99163220D01*
X129060295Y-99163220D02*
X129155533Y-99163220D01*
X129155533Y-99163220D02*
X129250771Y-99210839D01*
X129250771Y-99210839D02*
X129298390Y-99258458D01*
X129298390Y-99258458D02*
X129346009Y-99353696D01*
X129346009Y-99353696D02*
X129346009Y-99687029D01*
X129488866Y-98687029D02*
X129488866Y-97925125D01*
X129869819Y-96877506D02*
X129393628Y-97210839D01*
X129869819Y-97448934D02*
X128869819Y-97448934D01*
X128869819Y-97448934D02*
X128869819Y-97067982D01*
X128869819Y-97067982D02*
X128917438Y-96972744D01*
X128917438Y-96972744D02*
X128965057Y-96925125D01*
X128965057Y-96925125D02*
X129060295Y-96877506D01*
X129060295Y-96877506D02*
X129203152Y-96877506D01*
X129203152Y-96877506D02*
X129298390Y-96925125D01*
X129298390Y-96925125D02*
X129346009Y-96972744D01*
X129346009Y-96972744D02*
X129393628Y-97067982D01*
X129393628Y-97067982D02*
X129393628Y-97448934D01*
X128869819Y-96258458D02*
X128869819Y-96067982D01*
X128869819Y-96067982D02*
X128917438Y-95972744D01*
X128917438Y-95972744D02*
X129012676Y-95877506D01*
X129012676Y-95877506D02*
X129203152Y-95829887D01*
X129203152Y-95829887D02*
X129536485Y-95829887D01*
X129536485Y-95829887D02*
X129726961Y-95877506D01*
X129726961Y-95877506D02*
X129822200Y-95972744D01*
X129822200Y-95972744D02*
X129869819Y-96067982D01*
X129869819Y-96067982D02*
X129869819Y-96258458D01*
X129869819Y-96258458D02*
X129822200Y-96353696D01*
X129822200Y-96353696D02*
X129726961Y-96448934D01*
X129726961Y-96448934D02*
X129536485Y-96496553D01*
X129536485Y-96496553D02*
X129203152Y-96496553D01*
X129203152Y-96496553D02*
X129012676Y-96448934D01*
X129012676Y-96448934D02*
X128917438Y-96353696D01*
X128917438Y-96353696D02*
X128869819Y-96258458D01*
X129869819Y-95401315D02*
X128869819Y-95401315D01*
X128869819Y-95401315D02*
X129584104Y-95067982D01*
X129584104Y-95067982D02*
X128869819Y-94734649D01*
X128869819Y-94734649D02*
X129869819Y-94734649D01*
X129869819Y-92972744D02*
X129869819Y-93544172D01*
X129869819Y-93258458D02*
X128869819Y-93258458D01*
X128869819Y-93258458D02*
X129012676Y-93353696D01*
X129012676Y-93353696D02*
X129107914Y-93448934D01*
X129107914Y-93448934D02*
X129155533Y-93544172D01*
X128869819Y-92115601D02*
X128869819Y-92306077D01*
X128869819Y-92306077D02*
X128917438Y-92401315D01*
X128917438Y-92401315D02*
X128965057Y-92448934D01*
X128965057Y-92448934D02*
X129107914Y-92544172D01*
X129107914Y-92544172D02*
X129298390Y-92591791D01*
X129298390Y-92591791D02*
X129679342Y-92591791D01*
X129679342Y-92591791D02*
X129774580Y-92544172D01*
X129774580Y-92544172D02*
X129822200Y-92496553D01*
X129822200Y-92496553D02*
X129869819Y-92401315D01*
X129869819Y-92401315D02*
X129869819Y-92210839D01*
X129869819Y-92210839D02*
X129822200Y-92115601D01*
X129822200Y-92115601D02*
X129774580Y-92067982D01*
X129774580Y-92067982D02*
X129679342Y-92020363D01*
X129679342Y-92020363D02*
X129441247Y-92020363D01*
X129441247Y-92020363D02*
X129346009Y-92067982D01*
X129346009Y-92067982D02*
X129298390Y-92115601D01*
X129298390Y-92115601D02*
X129250771Y-92210839D01*
X129250771Y-92210839D02*
X129250771Y-92401315D01*
X129250771Y-92401315D02*
X129298390Y-92496553D01*
X129298390Y-92496553D02*
X129346009Y-92544172D01*
X129346009Y-92544172D02*
X129441247Y-92591791D01*
X129869819Y-91591791D02*
X128869819Y-91591791D01*
X129869819Y-91020363D02*
X129298390Y-91448934D01*
X128869819Y-91020363D02*
X129441247Y-91591791D01*
X129346009Y-90258458D02*
X129393628Y-90115601D01*
X129393628Y-90115601D02*
X129441247Y-90067982D01*
X129441247Y-90067982D02*
X129536485Y-90020363D01*
X129536485Y-90020363D02*
X129679342Y-90020363D01*
X129679342Y-90020363D02*
X129774580Y-90067982D01*
X129774580Y-90067982D02*
X129822200Y-90115601D01*
X129822200Y-90115601D02*
X129869819Y-90210839D01*
X129869819Y-90210839D02*
X129869819Y-90591791D01*
X129869819Y-90591791D02*
X128869819Y-90591791D01*
X128869819Y-90591791D02*
X128869819Y-90258458D01*
X128869819Y-90258458D02*
X128917438Y-90163220D01*
X128917438Y-90163220D02*
X128965057Y-90115601D01*
X128965057Y-90115601D02*
X129060295Y-90067982D01*
X129060295Y-90067982D02*
X129155533Y-90067982D01*
X129155533Y-90067982D02*
X129250771Y-90115601D01*
X129250771Y-90115601D02*
X129298390Y-90163220D01*
X129298390Y-90163220D02*
X129346009Y-90258458D01*
X129346009Y-90258458D02*
X129346009Y-90591791D01*
X130250771Y-89306077D02*
X130203152Y-89353696D01*
X130203152Y-89353696D02*
X130060295Y-89448934D01*
X130060295Y-89448934D02*
X129965057Y-89496553D01*
X129965057Y-89496553D02*
X129822200Y-89544172D01*
X129822200Y-89544172D02*
X129584104Y-89591791D01*
X129584104Y-89591791D02*
X129393628Y-89591791D01*
X129393628Y-89591791D02*
X129155533Y-89544172D01*
X129155533Y-89544172D02*
X129012676Y-89496553D01*
X129012676Y-89496553D02*
X128917438Y-89448934D01*
X128917438Y-89448934D02*
X128774580Y-89353696D01*
X128774580Y-89353696D02*
X128726961Y-89306077D01*
X129869819Y-88925124D02*
X128869819Y-88925124D01*
X128869819Y-88925124D02*
X128869819Y-88544172D01*
X128869819Y-88544172D02*
X128917438Y-88448934D01*
X128917438Y-88448934D02*
X128965057Y-88401315D01*
X128965057Y-88401315D02*
X129060295Y-88353696D01*
X129060295Y-88353696D02*
X129203152Y-88353696D01*
X129203152Y-88353696D02*
X129298390Y-88401315D01*
X129298390Y-88401315D02*
X129346009Y-88448934D01*
X129346009Y-88448934D02*
X129393628Y-88544172D01*
X129393628Y-88544172D02*
X129393628Y-88925124D01*
X128869819Y-87734648D02*
X128869819Y-87639410D01*
X128869819Y-87639410D02*
X128917438Y-87544172D01*
X128917438Y-87544172D02*
X128965057Y-87496553D01*
X128965057Y-87496553D02*
X129060295Y-87448934D01*
X129060295Y-87448934D02*
X129250771Y-87401315D01*
X129250771Y-87401315D02*
X129488866Y-87401315D01*
X129488866Y-87401315D02*
X129679342Y-87448934D01*
X129679342Y-87448934D02*
X129774580Y-87496553D01*
X129774580Y-87496553D02*
X129822200Y-87544172D01*
X129822200Y-87544172D02*
X129869819Y-87639410D01*
X129869819Y-87639410D02*
X129869819Y-87734648D01*
X129869819Y-87734648D02*
X129822200Y-87829886D01*
X129822200Y-87829886D02*
X129774580Y-87877505D01*
X129774580Y-87877505D02*
X129679342Y-87925124D01*
X129679342Y-87925124D02*
X129488866Y-87972743D01*
X129488866Y-87972743D02*
X129250771Y-87972743D01*
X129250771Y-87972743D02*
X129060295Y-87925124D01*
X129060295Y-87925124D02*
X128965057Y-87877505D01*
X128965057Y-87877505D02*
X128917438Y-87829886D01*
X128917438Y-87829886D02*
X128869819Y-87734648D01*
X130250771Y-87067981D02*
X130203152Y-87020362D01*
X130203152Y-87020362D02*
X130060295Y-86925124D01*
X130060295Y-86925124D02*
X129965057Y-86877505D01*
X129965057Y-86877505D02*
X129822200Y-86829886D01*
X129822200Y-86829886D02*
X129584104Y-86782267D01*
X129584104Y-86782267D02*
X129393628Y-86782267D01*
X129393628Y-86782267D02*
X129155533Y-86829886D01*
X129155533Y-86829886D02*
X129012676Y-86877505D01*
X129012676Y-86877505D02*
X128917438Y-86925124D01*
X128917438Y-86925124D02*
X128774580Y-87020362D01*
X128774580Y-87020362D02*
X128726961Y-87067981D01*
X129488866Y-85544171D02*
X129488866Y-84782267D01*
X129869819Y-85163219D02*
X129107914Y-85163219D01*
X129346009Y-83544171D02*
X129346009Y-83210838D01*
X129869819Y-83067981D02*
X129869819Y-83544171D01*
X129869819Y-83544171D02*
X128869819Y-83544171D01*
X128869819Y-83544171D02*
X128869819Y-83067981D01*
X128869819Y-82734647D02*
X129869819Y-82067981D01*
X128869819Y-82067981D02*
X129869819Y-82734647D01*
X128869819Y-81829885D02*
X128869819Y-81258457D01*
X129869819Y-81544171D02*
X128869819Y-81544171D01*
X129869819Y-79639409D02*
X129869819Y-80210837D01*
X129869819Y-79925123D02*
X128869819Y-79925123D01*
X128869819Y-79925123D02*
X129012676Y-80020361D01*
X129012676Y-80020361D02*
X129107914Y-80115599D01*
X129107914Y-80115599D02*
X129155533Y-80210837D01*
X128869819Y-78782266D02*
X128869819Y-78972742D01*
X128869819Y-78972742D02*
X128917438Y-79067980D01*
X128917438Y-79067980D02*
X128965057Y-79115599D01*
X128965057Y-79115599D02*
X129107914Y-79210837D01*
X129107914Y-79210837D02*
X129298390Y-79258456D01*
X129298390Y-79258456D02*
X129679342Y-79258456D01*
X129679342Y-79258456D02*
X129774580Y-79210837D01*
X129774580Y-79210837D02*
X129822200Y-79163218D01*
X129822200Y-79163218D02*
X129869819Y-79067980D01*
X129869819Y-79067980D02*
X129869819Y-78877504D01*
X129869819Y-78877504D02*
X129822200Y-78782266D01*
X129822200Y-78782266D02*
X129774580Y-78734647D01*
X129774580Y-78734647D02*
X129679342Y-78687028D01*
X129679342Y-78687028D02*
X129441247Y-78687028D01*
X129441247Y-78687028D02*
X129346009Y-78734647D01*
X129346009Y-78734647D02*
X129298390Y-78782266D01*
X129298390Y-78782266D02*
X129250771Y-78877504D01*
X129250771Y-78877504D02*
X129250771Y-79067980D01*
X129250771Y-79067980D02*
X129298390Y-79163218D01*
X129298390Y-79163218D02*
X129346009Y-79210837D01*
X129346009Y-79210837D02*
X129441247Y-79258456D01*
X129869819Y-78258456D02*
X128869819Y-78258456D01*
X129869819Y-77687028D02*
X129298390Y-78115599D01*
X128869819Y-77687028D02*
X129441247Y-78258456D01*
X129346009Y-76925123D02*
X129393628Y-76782266D01*
X129393628Y-76782266D02*
X129441247Y-76734647D01*
X129441247Y-76734647D02*
X129536485Y-76687028D01*
X129536485Y-76687028D02*
X129679342Y-76687028D01*
X129679342Y-76687028D02*
X129774580Y-76734647D01*
X129774580Y-76734647D02*
X129822200Y-76782266D01*
X129822200Y-76782266D02*
X129869819Y-76877504D01*
X129869819Y-76877504D02*
X129869819Y-77258456D01*
X129869819Y-77258456D02*
X128869819Y-77258456D01*
X128869819Y-77258456D02*
X128869819Y-76925123D01*
X128869819Y-76925123D02*
X128917438Y-76829885D01*
X128917438Y-76829885D02*
X128965057Y-76782266D01*
X128965057Y-76782266D02*
X129060295Y-76734647D01*
X129060295Y-76734647D02*
X129155533Y-76734647D01*
X129155533Y-76734647D02*
X129250771Y-76782266D01*
X129250771Y-76782266D02*
X129298390Y-76829885D01*
X129298390Y-76829885D02*
X129346009Y-76925123D01*
X129346009Y-76925123D02*
X129346009Y-77258456D01*
X130250771Y-75972742D02*
X130203152Y-76020361D01*
X130203152Y-76020361D02*
X130060295Y-76115599D01*
X130060295Y-76115599D02*
X129965057Y-76163218D01*
X129965057Y-76163218D02*
X129822200Y-76210837D01*
X129822200Y-76210837D02*
X129584104Y-76258456D01*
X129584104Y-76258456D02*
X129393628Y-76258456D01*
X129393628Y-76258456D02*
X129155533Y-76210837D01*
X129155533Y-76210837D02*
X129012676Y-76163218D01*
X129012676Y-76163218D02*
X128917438Y-76115599D01*
X128917438Y-76115599D02*
X128774580Y-76020361D01*
X128774580Y-76020361D02*
X128726961Y-75972742D01*
X129869819Y-75591789D02*
X128869819Y-75591789D01*
X128869819Y-75591789D02*
X128869819Y-75210837D01*
X128869819Y-75210837D02*
X128917438Y-75115599D01*
X128917438Y-75115599D02*
X128965057Y-75067980D01*
X128965057Y-75067980D02*
X129060295Y-75020361D01*
X129060295Y-75020361D02*
X129203152Y-75020361D01*
X129203152Y-75020361D02*
X129298390Y-75067980D01*
X129298390Y-75067980D02*
X129346009Y-75115599D01*
X129346009Y-75115599D02*
X129393628Y-75210837D01*
X129393628Y-75210837D02*
X129393628Y-75591789D01*
X129869819Y-74067980D02*
X129869819Y-74639408D01*
X129869819Y-74353694D02*
X128869819Y-74353694D01*
X128869819Y-74353694D02*
X129012676Y-74448932D01*
X129012676Y-74448932D02*
X129107914Y-74544170D01*
X129107914Y-74544170D02*
X129155533Y-74639408D01*
X130250771Y-73734646D02*
X130203152Y-73687027D01*
X130203152Y-73687027D02*
X130060295Y-73591789D01*
X130060295Y-73591789D02*
X129965057Y-73544170D01*
X129965057Y-73544170D02*
X129822200Y-73496551D01*
X129822200Y-73496551D02*
X129584104Y-73448932D01*
X129584104Y-73448932D02*
X129393628Y-73448932D01*
X129393628Y-73448932D02*
X129155533Y-73496551D01*
X129155533Y-73496551D02*
X129012676Y-73544170D01*
X129012676Y-73544170D02*
X128917438Y-73591789D01*
X128917438Y-73591789D02*
X128774580Y-73687027D01*
X128774580Y-73687027D02*
X128726961Y-73734646D01*
X103169819Y-61340904D02*
X103979342Y-61340904D01*
X103979342Y-61340904D02*
X104074580Y-61293285D01*
X104074580Y-61293285D02*
X104122200Y-61245666D01*
X104122200Y-61245666D02*
X104169819Y-61150428D01*
X104169819Y-61150428D02*
X104169819Y-60959952D01*
X104169819Y-60959952D02*
X104122200Y-60864714D01*
X104122200Y-60864714D02*
X104074580Y-60817095D01*
X104074580Y-60817095D02*
X103979342Y-60769476D01*
X103979342Y-60769476D02*
X103169819Y-60769476D01*
X104169819Y-59769476D02*
X104169819Y-60340904D01*
X104169819Y-60055190D02*
X103169819Y-60055190D01*
X103169819Y-60055190D02*
X103312676Y-60150428D01*
X103312676Y-60150428D02*
X103407914Y-60245666D01*
X103407914Y-60245666D02*
X103455533Y-60340904D01*
X101533833Y-55698580D02*
X101486214Y-55746200D01*
X101486214Y-55746200D02*
X101343357Y-55793819D01*
X101343357Y-55793819D02*
X101248119Y-55793819D01*
X101248119Y-55793819D02*
X101105262Y-55746200D01*
X101105262Y-55746200D02*
X101010024Y-55650961D01*
X101010024Y-55650961D02*
X100962405Y-55555723D01*
X100962405Y-55555723D02*
X100914786Y-55365247D01*
X100914786Y-55365247D02*
X100914786Y-55222390D01*
X100914786Y-55222390D02*
X100962405Y-55031914D01*
X100962405Y-55031914D02*
X101010024Y-54936676D01*
X101010024Y-54936676D02*
X101105262Y-54841438D01*
X101105262Y-54841438D02*
X101248119Y-54793819D01*
X101248119Y-54793819D02*
X101343357Y-54793819D01*
X101343357Y-54793819D02*
X101486214Y-54841438D01*
X101486214Y-54841438D02*
X101533833Y-54889057D01*
X102438595Y-54793819D02*
X101962405Y-54793819D01*
X101962405Y-54793819D02*
X101914786Y-55270009D01*
X101914786Y-55270009D02*
X101962405Y-55222390D01*
X101962405Y-55222390D02*
X102057643Y-55174771D01*
X102057643Y-55174771D02*
X102295738Y-55174771D01*
X102295738Y-55174771D02*
X102390976Y-55222390D01*
X102390976Y-55222390D02*
X102438595Y-55270009D01*
X102438595Y-55270009D02*
X102486214Y-55365247D01*
X102486214Y-55365247D02*
X102486214Y-55603342D01*
X102486214Y-55603342D02*
X102438595Y-55698580D01*
X102438595Y-55698580D02*
X102390976Y-55746200D01*
X102390976Y-55746200D02*
X102295738Y-55793819D01*
X102295738Y-55793819D02*
X102057643Y-55793819D01*
X102057643Y-55793819D02*
X101962405Y-55746200D01*
X101962405Y-55746200D02*
X101914786Y-55698580D01*
X85725095Y-148723819D02*
X85725095Y-149533342D01*
X85725095Y-149533342D02*
X85772714Y-149628580D01*
X85772714Y-149628580D02*
X85820333Y-149676200D01*
X85820333Y-149676200D02*
X85915571Y-149723819D01*
X85915571Y-149723819D02*
X86106047Y-149723819D01*
X86106047Y-149723819D02*
X86201285Y-149676200D01*
X86201285Y-149676200D02*
X86248904Y-149628580D01*
X86248904Y-149628580D02*
X86296523Y-149533342D01*
X86296523Y-149533342D02*
X86296523Y-148723819D01*
X86677476Y-148723819D02*
X87296523Y-148723819D01*
X87296523Y-148723819D02*
X86963190Y-149104771D01*
X86963190Y-149104771D02*
X87106047Y-149104771D01*
X87106047Y-149104771D02*
X87201285Y-149152390D01*
X87201285Y-149152390D02*
X87248904Y-149200009D01*
X87248904Y-149200009D02*
X87296523Y-149295247D01*
X87296523Y-149295247D02*
X87296523Y-149533342D01*
X87296523Y-149533342D02*
X87248904Y-149628580D01*
X87248904Y-149628580D02*
X87201285Y-149676200D01*
X87201285Y-149676200D02*
X87106047Y-149723819D01*
X87106047Y-149723819D02*
X86820333Y-149723819D01*
X86820333Y-149723819D02*
X86725095Y-149676200D01*
X86725095Y-149676200D02*
X86677476Y-149628580D01*
X100054580Y-111672666D02*
X100102200Y-111720285D01*
X100102200Y-111720285D02*
X100149819Y-111863142D01*
X100149819Y-111863142D02*
X100149819Y-111958380D01*
X100149819Y-111958380D02*
X100102200Y-112101237D01*
X100102200Y-112101237D02*
X100006961Y-112196475D01*
X100006961Y-112196475D02*
X99911723Y-112244094D01*
X99911723Y-112244094D02*
X99721247Y-112291713D01*
X99721247Y-112291713D02*
X99578390Y-112291713D01*
X99578390Y-112291713D02*
X99387914Y-112244094D01*
X99387914Y-112244094D02*
X99292676Y-112196475D01*
X99292676Y-112196475D02*
X99197438Y-112101237D01*
X99197438Y-112101237D02*
X99149819Y-111958380D01*
X99149819Y-111958380D02*
X99149819Y-111863142D01*
X99149819Y-111863142D02*
X99197438Y-111720285D01*
X99197438Y-111720285D02*
X99245057Y-111672666D01*
X99483152Y-110815523D02*
X100149819Y-110815523D01*
X99102200Y-111053618D02*
X99816485Y-111291713D01*
X99816485Y-111291713D02*
X99816485Y-110672666D01*
X98403580Y-145227166D02*
X98451200Y-145274785D01*
X98451200Y-145274785D02*
X98498819Y-145417642D01*
X98498819Y-145417642D02*
X98498819Y-145512880D01*
X98498819Y-145512880D02*
X98451200Y-145655737D01*
X98451200Y-145655737D02*
X98355961Y-145750975D01*
X98355961Y-145750975D02*
X98260723Y-145798594D01*
X98260723Y-145798594D02*
X98070247Y-145846213D01*
X98070247Y-145846213D02*
X97927390Y-145846213D01*
X97927390Y-145846213D02*
X97736914Y-145798594D01*
X97736914Y-145798594D02*
X97641676Y-145750975D01*
X97641676Y-145750975D02*
X97546438Y-145655737D01*
X97546438Y-145655737D02*
X97498819Y-145512880D01*
X97498819Y-145512880D02*
X97498819Y-145417642D01*
X97498819Y-145417642D02*
X97546438Y-145274785D01*
X97546438Y-145274785D02*
X97594057Y-145227166D01*
X97498819Y-144893832D02*
X97498819Y-144274785D01*
X97498819Y-144274785D02*
X97879771Y-144608118D01*
X97879771Y-144608118D02*
X97879771Y-144465261D01*
X97879771Y-144465261D02*
X97927390Y-144370023D01*
X97927390Y-144370023D02*
X97975009Y-144322404D01*
X97975009Y-144322404D02*
X98070247Y-144274785D01*
X98070247Y-144274785D02*
X98308342Y-144274785D01*
X98308342Y-144274785D02*
X98403580Y-144322404D01*
X98403580Y-144322404D02*
X98451200Y-144370023D01*
X98451200Y-144370023D02*
X98498819Y-144465261D01*
X98498819Y-144465261D02*
X98498819Y-144750975D01*
X98498819Y-144750975D02*
X98451200Y-144846213D01*
X98451200Y-144846213D02*
X98403580Y-144893832D01*
X124184580Y-145200666D02*
X124232200Y-145248285D01*
X124232200Y-145248285D02*
X124279819Y-145391142D01*
X124279819Y-145391142D02*
X124279819Y-145486380D01*
X124279819Y-145486380D02*
X124232200Y-145629237D01*
X124232200Y-145629237D02*
X124136961Y-145724475D01*
X124136961Y-145724475D02*
X124041723Y-145772094D01*
X124041723Y-145772094D02*
X123851247Y-145819713D01*
X123851247Y-145819713D02*
X123708390Y-145819713D01*
X123708390Y-145819713D02*
X123517914Y-145772094D01*
X123517914Y-145772094D02*
X123422676Y-145724475D01*
X123422676Y-145724475D02*
X123327438Y-145629237D01*
X123327438Y-145629237D02*
X123279819Y-145486380D01*
X123279819Y-145486380D02*
X123279819Y-145391142D01*
X123279819Y-145391142D02*
X123327438Y-145248285D01*
X123327438Y-145248285D02*
X123375057Y-145200666D01*
X124279819Y-144248285D02*
X124279819Y-144819713D01*
X124279819Y-144533999D02*
X123279819Y-144533999D01*
X123279819Y-144533999D02*
X123422676Y-144629237D01*
X123422676Y-144629237D02*
X123517914Y-144724475D01*
X123517914Y-144724475D02*
X123565533Y-144819713D01*
X85846095Y-110390819D02*
X85846095Y-111200342D01*
X85846095Y-111200342D02*
X85893714Y-111295580D01*
X85893714Y-111295580D02*
X85941333Y-111343200D01*
X85941333Y-111343200D02*
X86036571Y-111390819D01*
X86036571Y-111390819D02*
X86227047Y-111390819D01*
X86227047Y-111390819D02*
X86322285Y-111343200D01*
X86322285Y-111343200D02*
X86369904Y-111295580D01*
X86369904Y-111295580D02*
X86417523Y-111200342D01*
X86417523Y-111200342D02*
X86417523Y-110390819D01*
X86846095Y-110486057D02*
X86893714Y-110438438D01*
X86893714Y-110438438D02*
X86988952Y-110390819D01*
X86988952Y-110390819D02*
X87227047Y-110390819D01*
X87227047Y-110390819D02*
X87322285Y-110438438D01*
X87322285Y-110438438D02*
X87369904Y-110486057D01*
X87369904Y-110486057D02*
X87417523Y-110581295D01*
X87417523Y-110581295D02*
X87417523Y-110676533D01*
X87417523Y-110676533D02*
X87369904Y-110819390D01*
X87369904Y-110819390D02*
X86798476Y-111390819D01*
X86798476Y-111390819D02*
X87417523Y-111390819D01*
X112725095Y-148703819D02*
X112725095Y-149513342D01*
X112725095Y-149513342D02*
X112772714Y-149608580D01*
X112772714Y-149608580D02*
X112820333Y-149656200D01*
X112820333Y-149656200D02*
X112915571Y-149703819D01*
X112915571Y-149703819D02*
X113106047Y-149703819D01*
X113106047Y-149703819D02*
X113201285Y-149656200D01*
X113201285Y-149656200D02*
X113248904Y-149608580D01*
X113248904Y-149608580D02*
X113296523Y-149513342D01*
X113296523Y-149513342D02*
X113296523Y-148703819D01*
X114248904Y-148703819D02*
X113772714Y-148703819D01*
X113772714Y-148703819D02*
X113725095Y-149180009D01*
X113725095Y-149180009D02*
X113772714Y-149132390D01*
X113772714Y-149132390D02*
X113867952Y-149084771D01*
X113867952Y-149084771D02*
X114106047Y-149084771D01*
X114106047Y-149084771D02*
X114201285Y-149132390D01*
X114201285Y-149132390D02*
X114248904Y-149180009D01*
X114248904Y-149180009D02*
X114296523Y-149275247D01*
X114296523Y-149275247D02*
X114296523Y-149513342D01*
X114296523Y-149513342D02*
X114248904Y-149608580D01*
X114248904Y-149608580D02*
X114201285Y-149656200D01*
X114201285Y-149656200D02*
X114106047Y-149703819D01*
X114106047Y-149703819D02*
X113867952Y-149703819D01*
X113867952Y-149703819D02*
X113772714Y-149656200D01*
X113772714Y-149656200D02*
X113725095Y-149608580D01*
X112903095Y-110369819D02*
X112903095Y-111179342D01*
X112903095Y-111179342D02*
X112950714Y-111274580D01*
X112950714Y-111274580D02*
X112998333Y-111322200D01*
X112998333Y-111322200D02*
X113093571Y-111369819D01*
X113093571Y-111369819D02*
X113284047Y-111369819D01*
X113284047Y-111369819D02*
X113379285Y-111322200D01*
X113379285Y-111322200D02*
X113426904Y-111274580D01*
X113426904Y-111274580D02*
X113474523Y-111179342D01*
X113474523Y-111179342D02*
X113474523Y-110369819D01*
X114379285Y-110703152D02*
X114379285Y-111369819D01*
X114141190Y-110322200D02*
X113903095Y-111036485D01*
X113903095Y-111036485D02*
X114522142Y-111036485D01*
X124057580Y-108878666D02*
X124105200Y-108926285D01*
X124105200Y-108926285D02*
X124152819Y-109069142D01*
X124152819Y-109069142D02*
X124152819Y-109164380D01*
X124152819Y-109164380D02*
X124105200Y-109307237D01*
X124105200Y-109307237D02*
X124009961Y-109402475D01*
X124009961Y-109402475D02*
X123914723Y-109450094D01*
X123914723Y-109450094D02*
X123724247Y-109497713D01*
X123724247Y-109497713D02*
X123581390Y-109497713D01*
X123581390Y-109497713D02*
X123390914Y-109450094D01*
X123390914Y-109450094D02*
X123295676Y-109402475D01*
X123295676Y-109402475D02*
X123200438Y-109307237D01*
X123200438Y-109307237D02*
X123152819Y-109164380D01*
X123152819Y-109164380D02*
X123152819Y-109069142D01*
X123152819Y-109069142D02*
X123200438Y-108926285D01*
X123200438Y-108926285D02*
X123248057Y-108878666D01*
X123248057Y-108497713D02*
X123200438Y-108450094D01*
X123200438Y-108450094D02*
X123152819Y-108354856D01*
X123152819Y-108354856D02*
X123152819Y-108116761D01*
X123152819Y-108116761D02*
X123200438Y-108021523D01*
X123200438Y-108021523D02*
X123248057Y-107973904D01*
X123248057Y-107973904D02*
X123343295Y-107926285D01*
X123343295Y-107926285D02*
X123438533Y-107926285D01*
X123438533Y-107926285D02*
X123581390Y-107973904D01*
X123581390Y-107973904D02*
X124152819Y-108545332D01*
X124152819Y-108545332D02*
X124152819Y-107926285D01*
D11*
X104715000Y-63229000D02*
X125155000Y-63229000D01*
X125155000Y-63229000D02*
X125155000Y-57929000D01*
X104715000Y-61579000D02*
X104715000Y-63229000D01*
X104715000Y-57929000D02*
X104715000Y-59579000D01*
X125155000Y-57929000D02*
X104715000Y-57929000D01*
X104715000Y-61579000D02*
G75*
G03*
X104715000Y-59579000I0J1000000D01*
G01*
X101554233Y-56259000D02*
X101846767Y-56259000D01*
X101554233Y-57279000D02*
X101846767Y-57279000D01*
X92947000Y-148269000D02*
X92947000Y-112589000D01*
X92947000Y-112589000D02*
X80027000Y-112589000D01*
X87487000Y-148269000D02*
X92947000Y-148269000D01*
X80027000Y-148269000D02*
X85487000Y-148269000D01*
X80027000Y-112589000D02*
X80027000Y-148269000D01*
X87487000Y-148269000D02*
G75*
G03*
X85487000Y-148269000I-1000000J0D01*
G01*
X62678000Y-65642000D02*
X98358000Y-65642000D01*
X98358000Y-65642000D02*
X98358000Y-52722000D01*
X62678000Y-60182000D02*
X62678000Y-65642000D01*
X62678000Y-52722000D02*
X62678000Y-58182000D01*
X98358000Y-52722000D02*
X62678000Y-52722000D01*
X62678000Y-60182000D02*
G75*
G03*
X62678000Y-58182000I0J1000000D01*
G01*
X97407000Y-111652267D02*
X97407000Y-111359733D01*
X98427000Y-111652267D02*
X98427000Y-111359733D01*
X97407000Y-147974267D02*
X97407000Y-147681733D01*
X98427000Y-147974267D02*
X98427000Y-147681733D01*
X124462000Y-147655233D02*
X124462000Y-147947767D01*
X123442000Y-147655233D02*
X123442000Y-147947767D01*
G36*
X131035022Y-64226879D02*
G01*
X131101380Y-64254740D01*
X131157093Y-64301692D01*
X131197578Y-64365271D01*
X131213218Y-64412824D01*
X131215830Y-64455042D01*
X131210244Y-64518854D01*
X131198963Y-64588998D01*
X131187607Y-64663792D01*
X131179608Y-64744917D01*
X131175145Y-64826109D01*
X131174397Y-64901107D01*
X131177542Y-64963648D01*
X131184759Y-65007470D01*
X131186847Y-65013807D01*
X131202239Y-65039945D01*
X131231095Y-65077745D01*
X131267905Y-65120131D01*
X131278394Y-65131342D01*
X131316142Y-65172455D01*
X131347504Y-65209265D01*
X131367090Y-65235360D01*
X131369792Y-65240000D01*
X131387607Y-65297847D01*
X131391236Y-65363296D01*
X131384313Y-65406180D01*
X131352745Y-65476366D01*
X131302272Y-65528528D01*
X131262364Y-65552189D01*
X131185939Y-65576407D01*
X131111774Y-65574420D01*
X131056135Y-65554529D01*
X131011063Y-65524914D01*
X130957080Y-65479875D01*
X130900700Y-65425740D01*
X130848440Y-65368838D01*
X130806815Y-65315496D01*
X130800844Y-65306591D01*
X130778718Y-65273411D01*
X130767590Y-65259685D01*
X130767479Y-65266600D01*
X130778409Y-65295342D01*
X130800402Y-65347099D01*
X130801642Y-65349964D01*
X130831928Y-65419927D01*
X130804602Y-65456630D01*
X130764470Y-65495313D01*
X130753333Y-65498959D01*
X130721528Y-65509371D01*
X130678706Y-65497933D01*
X130674470Y-65495305D01*
X130641359Y-65461673D01*
X130607638Y-65405983D01*
X130575105Y-65332733D01*
X130545559Y-65246420D01*
X130540404Y-65226667D01*
X130746667Y-65226667D01*
X130753333Y-65233334D01*
X130760000Y-65226667D01*
X130753333Y-65220000D01*
X130746667Y-65226667D01*
X130540404Y-65226667D01*
X130520797Y-65151544D01*
X130505776Y-65073334D01*
X130498169Y-64996984D01*
X130496044Y-64904537D01*
X130498999Y-64805351D01*
X130506634Y-64708786D01*
X130518545Y-64624201D01*
X130526649Y-64586667D01*
X130553000Y-64504524D01*
X130588715Y-64422675D01*
X130629899Y-64348564D01*
X130672657Y-64289633D01*
X130693302Y-64268281D01*
X130737221Y-64234225D01*
X130772636Y-64221545D01*
X130805064Y-64228936D01*
X130819916Y-64238290D01*
X130841492Y-64249244D01*
X130866079Y-64246770D01*
X130888703Y-64238290D01*
X130962602Y-64220574D01*
X131035022Y-64226879D01*
G37*
G36*
X131703542Y-62105097D02*
G01*
X131782063Y-62129964D01*
X131860547Y-62175517D01*
X131936308Y-62240824D01*
X132006657Y-62324951D01*
X132022006Y-62347189D01*
X132070989Y-62439231D01*
X132110174Y-62550336D01*
X132138534Y-62674382D01*
X132155039Y-62805248D01*
X132158663Y-62936815D01*
X132148377Y-63062959D01*
X132145403Y-63082045D01*
X132117769Y-63190922D01*
X132073958Y-63294181D01*
X132034176Y-63359758D01*
X131988690Y-63423736D01*
X132020516Y-63474152D01*
X132066602Y-63564231D01*
X132094239Y-63661726D01*
X132104847Y-63772627D01*
X132104463Y-63827942D01*
X132101764Y-63891373D01*
X132097034Y-63937624D01*
X132087889Y-63976179D01*
X132071946Y-64016523D01*
X132046820Y-64068139D01*
X132041398Y-64078848D01*
X131984269Y-64172914D01*
X131918053Y-64250780D01*
X131845556Y-64311318D01*
X131769585Y-64353404D01*
X131692947Y-64375911D01*
X131618450Y-64377715D01*
X131548900Y-64357689D01*
X131487104Y-64314707D01*
X131477515Y-64304976D01*
X131434213Y-64241171D01*
X131414608Y-64171403D01*
X131417971Y-64100405D01*
X131443571Y-64032911D01*
X131490678Y-63973652D01*
X131533643Y-63941077D01*
X131590092Y-63899048D01*
X131623477Y-63855178D01*
X131633703Y-63807360D01*
X131620679Y-63753487D01*
X131584310Y-63691452D01*
X131524503Y-63619150D01*
X131519102Y-63613289D01*
X131468371Y-63556646D01*
X131434170Y-63512376D01*
X131413426Y-63474771D01*
X131403067Y-63438124D01*
X131400021Y-63396726D01*
X131400000Y-63392038D01*
X131406892Y-63330371D01*
X131429507Y-63276361D01*
X131470749Y-63225905D01*
X131533526Y-63174902D01*
X131572107Y-63149054D01*
X131617350Y-63115358D01*
X131647336Y-63078755D01*
X131665422Y-63032412D01*
X131674963Y-62969497D01*
X131677316Y-62934854D01*
X131677328Y-62852241D01*
X131669639Y-62771060D01*
X131655460Y-62697400D01*
X131636005Y-62637352D01*
X131612484Y-62597006D01*
X131609419Y-62593750D01*
X131577969Y-62566815D01*
X131539271Y-62538910D01*
X131533650Y-62535290D01*
X131473295Y-62483354D01*
X131434727Y-62420403D01*
X131418438Y-62351110D01*
X131424918Y-62280143D01*
X131454659Y-62212176D01*
X131494627Y-62163955D01*
X131557137Y-62121159D01*
X131627671Y-62101851D01*
X131703542Y-62105097D01*
G37*
G36*
X130828981Y-60792348D02*
G01*
X130831768Y-60794485D01*
X130855833Y-60817510D01*
X130864544Y-60842490D01*
X130862833Y-60878572D01*
X130854986Y-60914224D01*
X130838870Y-60966071D01*
X130817155Y-61025988D01*
X130801642Y-61064606D01*
X130774083Y-61132262D01*
X130756603Y-61179125D01*
X130749238Y-61204481D01*
X130752021Y-61207619D01*
X130764986Y-61187822D01*
X130788169Y-61144380D01*
X130798820Y-61123222D01*
X130864927Y-61005360D01*
X130932914Y-60913533D01*
X131002611Y-60847853D01*
X131073847Y-60808437D01*
X131146453Y-60795399D01*
X131220260Y-60808855D01*
X131246634Y-60819985D01*
X131296445Y-60852169D01*
X131336268Y-60892390D01*
X131340738Y-60898725D01*
X131367137Y-60956122D01*
X131380341Y-61022415D01*
X131378381Y-61085360D01*
X131373805Y-61104155D01*
X131358486Y-61135895D01*
X131332360Y-61176080D01*
X131314259Y-61199742D01*
X131243929Y-61305037D01*
X131189963Y-61426473D01*
X131153738Y-61558132D01*
X131136631Y-61694098D01*
X131140021Y-61828454D01*
X131151222Y-61900000D01*
X131163693Y-61989195D01*
X131158926Y-62061320D01*
X131135767Y-62120578D01*
X131093059Y-62171170D01*
X131071850Y-62188702D01*
X131017365Y-62216897D01*
X130951809Y-62231402D01*
X130885693Y-62231084D01*
X130829528Y-62214813D01*
X130829466Y-62214782D01*
X130790171Y-62199702D01*
X130753454Y-62193335D01*
X130753119Y-62193334D01*
X130737778Y-62191208D01*
X130726667Y-62189669D01*
X130713634Y-62187863D01*
X130681467Y-62168616D01*
X130651658Y-62131341D01*
X130625157Y-62083677D01*
X130567080Y-61943851D01*
X130525995Y-61791478D01*
X130502573Y-61632904D01*
X130497486Y-61474479D01*
X130511405Y-61322549D01*
X130517780Y-61293334D01*
X130720000Y-61293334D01*
X130726667Y-61300000D01*
X130733333Y-61293334D01*
X130726667Y-61286667D01*
X130720000Y-61293334D01*
X130517780Y-61293334D01*
X130526449Y-61253602D01*
X130736182Y-61253602D01*
X130737778Y-61255556D01*
X130745704Y-61253726D01*
X130746667Y-61246667D01*
X130741788Y-61235692D01*
X130737778Y-61237778D01*
X130736182Y-61253602D01*
X130526449Y-61253602D01*
X130533781Y-61220000D01*
X130555520Y-61148903D01*
X130581716Y-61072890D01*
X130610185Y-60997376D01*
X130638742Y-60927775D01*
X130665203Y-60869501D01*
X130687383Y-60827968D01*
X130697987Y-60813044D01*
X130740605Y-60779839D01*
X130784724Y-60772877D01*
X130828981Y-60792348D01*
G37*
G36*
X134231518Y-59016262D02*
G01*
X134247080Y-59020116D01*
X134315471Y-59051807D01*
X134369356Y-59105077D01*
X134402551Y-59163263D01*
X134412468Y-59187679D01*
X134418819Y-59211827D01*
X134421852Y-59241125D01*
X134421815Y-59280990D01*
X134418955Y-59336837D01*
X134413828Y-59409930D01*
X134394817Y-59622590D01*
X134369746Y-59831151D01*
X134339302Y-60031986D01*
X134304170Y-60221468D01*
X134265036Y-60395971D01*
X134222586Y-60551868D01*
X134177506Y-60685532D01*
X134167963Y-60709954D01*
X134122373Y-60823497D01*
X135102649Y-63091749D01*
X135203831Y-63325889D01*
X135302241Y-63553646D01*
X135397353Y-63773798D01*
X135488636Y-63985121D01*
X135575565Y-64186393D01*
X135657611Y-64376391D01*
X135734246Y-64553891D01*
X135804943Y-64717671D01*
X135869174Y-64866508D01*
X135926410Y-64999179D01*
X135976124Y-65114462D01*
X136017789Y-65211133D01*
X136050876Y-65287969D01*
X136074858Y-65343748D01*
X136089206Y-65377247D01*
X136093391Y-65387173D01*
X136094333Y-65393921D01*
X136090736Y-65401463D01*
X136080659Y-65410736D01*
X136062162Y-65422675D01*
X136033306Y-65438216D01*
X135992151Y-65458297D01*
X135936757Y-65483853D01*
X135865186Y-65515821D01*
X135775496Y-65555136D01*
X135665748Y-65602736D01*
X135534003Y-65659556D01*
X135488595Y-65679101D01*
X135368310Y-65730876D01*
X135255692Y-65779380D01*
X135153068Y-65823607D01*
X135062766Y-65862554D01*
X134987113Y-65895216D01*
X134928438Y-65920589D01*
X134889069Y-65937668D01*
X134871332Y-65945448D01*
X134870557Y-65945816D01*
X134871948Y-65958676D01*
X134878347Y-65990188D01*
X134886877Y-66027222D01*
X134897460Y-66082637D01*
X134907022Y-66153730D01*
X134915222Y-66234819D01*
X134921719Y-66320220D01*
X134926173Y-66404254D01*
X134928245Y-66481238D01*
X134927594Y-66545491D01*
X134923879Y-66591331D01*
X134921385Y-66603509D01*
X134890952Y-66670676D01*
X134843235Y-66726318D01*
X134783693Y-66766637D01*
X134717785Y-66787831D01*
X134657242Y-66787362D01*
X134580404Y-66762298D01*
X134521826Y-66718099D01*
X134481353Y-66654544D01*
X134458831Y-66571413D01*
X134453626Y-66496142D01*
X134443280Y-66298772D01*
X134439028Y-66273436D01*
X134412825Y-66117302D01*
X134361389Y-65949165D01*
X134288102Y-65791795D01*
X134192093Y-65642625D01*
X134142280Y-65578751D01*
X134080831Y-65511743D01*
X134023243Y-65467224D01*
X133964440Y-65442558D01*
X133899351Y-65435108D01*
X133868548Y-65436510D01*
X133826190Y-65441574D01*
X133796649Y-65451684D01*
X133770053Y-65472170D01*
X133737507Y-65507251D01*
X133695007Y-65561131D01*
X133658909Y-65620222D01*
X133628613Y-65687192D01*
X133603522Y-65764707D01*
X133583034Y-65855435D01*
X133566551Y-65962043D01*
X133553474Y-66087199D01*
X133543204Y-66233568D01*
X133535140Y-66403820D01*
X133534951Y-66408658D01*
X133531395Y-66496341D01*
X133528061Y-66561744D01*
X133524301Y-66609239D01*
X133519468Y-66643200D01*
X133512912Y-66667998D01*
X133503984Y-66688006D01*
X133492038Y-66707598D01*
X133490207Y-66710376D01*
X133444819Y-66759248D01*
X133385046Y-66796728D01*
X133320742Y-66817368D01*
X133292457Y-66819708D01*
X133240984Y-66811396D01*
X133185017Y-66790496D01*
X133136675Y-66762192D01*
X133117175Y-66744729D01*
X133092852Y-66709499D01*
X133074420Y-66663771D01*
X133061720Y-66605181D01*
X133054593Y-66531364D01*
X133052879Y-66439956D01*
X133056419Y-66328592D01*
X133065053Y-66194907D01*
X133073344Y-66094671D01*
X133089162Y-65937404D01*
X133107364Y-65802818D01*
X133129044Y-65686957D01*
X133155296Y-65585867D01*
X133187212Y-65495592D01*
X133225887Y-65412179D01*
X133272414Y-65331672D01*
X133293063Y-65300000D01*
X133342272Y-65226667D01*
X132305229Y-62827498D01*
X132201305Y-62586977D01*
X132100287Y-62352991D01*
X132002679Y-62126717D01*
X131908985Y-61909328D01*
X131819708Y-61702001D01*
X131735353Y-61505910D01*
X131656423Y-61322229D01*
X131583422Y-61152135D01*
X131516854Y-60996801D01*
X131457222Y-60857404D01*
X131405031Y-60735117D01*
X131394605Y-60710612D01*
X131698517Y-60710612D01*
X131707279Y-60742827D01*
X131727105Y-60797216D01*
X131758205Y-60874351D01*
X131800787Y-60974801D01*
X131806617Y-60988304D01*
X131842278Y-61070128D01*
X131874899Y-61143745D01*
X131902868Y-61205617D01*
X131924576Y-61252208D01*
X131938410Y-61279980D01*
X131942304Y-61286178D01*
X131958141Y-61291647D01*
X131996082Y-61301456D01*
X132052091Y-61314663D01*
X132122136Y-61330324D01*
X132202181Y-61347496D01*
X132226667Y-61352620D01*
X132308296Y-61369742D01*
X132380602Y-61385170D01*
X132439683Y-61398050D01*
X132481640Y-61407529D01*
X132502573Y-61412752D01*
X132504178Y-61413369D01*
X132498761Y-61425330D01*
X132481244Y-61456570D01*
X132453612Y-61503723D01*
X132417845Y-61563420D01*
X132375926Y-61632296D01*
X132360845Y-61656849D01*
X132316863Y-61729180D01*
X132278107Y-61794621D01*
X132246654Y-61849523D01*
X132224583Y-61890235D01*
X132213971Y-61913108D01*
X132213333Y-61915961D01*
X132218467Y-61933256D01*
X132232878Y-61971310D01*
X132255086Y-62026483D01*
X132283606Y-62095133D01*
X132316956Y-62173621D01*
X132340324Y-62227735D01*
X132379281Y-62317484D01*
X132426049Y-62425374D01*
X132477881Y-62545060D01*
X132532029Y-62670193D01*
X132585746Y-62794429D01*
X132636286Y-62911421D01*
X132642869Y-62926667D01*
X132686849Y-63027619D01*
X132729431Y-63123634D01*
X132768996Y-63211184D01*
X132803922Y-63286745D01*
X132832588Y-63346791D01*
X132853374Y-63387796D01*
X132860996Y-63401173D01*
X132931047Y-63488667D01*
X133018047Y-63558350D01*
X133117702Y-63608527D01*
X133225715Y-63637503D01*
X133337789Y-63643583D01*
X133436992Y-63628485D01*
X133514685Y-63603947D01*
X133599398Y-63569513D01*
X133684123Y-63528736D01*
X133761855Y-63485166D01*
X133825588Y-63442355D01*
X133857524Y-63415324D01*
X133930678Y-63326374D01*
X133980396Y-63225018D01*
X134006909Y-63110724D01*
X134011229Y-63057533D01*
X134015922Y-62941732D01*
X133915402Y-62704199D01*
X133884000Y-62629275D01*
X133856359Y-62561953D01*
X133834139Y-62506390D01*
X133819001Y-62466742D01*
X133812603Y-62447163D01*
X133812528Y-62446667D01*
X133817138Y-62396912D01*
X133839830Y-62357963D01*
X133874781Y-62332891D01*
X133916166Y-62324770D01*
X133958162Y-62336673D01*
X133983088Y-62356667D01*
X133997304Y-62378675D01*
X134019146Y-62420662D01*
X134046325Y-62477854D01*
X134076550Y-62545476D01*
X134099774Y-62600000D01*
X134135576Y-62685746D01*
X134174072Y-62777734D01*
X134211478Y-62866941D01*
X134244016Y-62944348D01*
X134255349Y-62971235D01*
X134279972Y-63030598D01*
X134299798Y-63080336D01*
X134313010Y-63115744D01*
X134317794Y-63132120D01*
X134317654Y-63132661D01*
X134306618Y-63141801D01*
X134277923Y-63165593D01*
X134234433Y-63201663D01*
X134179010Y-63247636D01*
X134114520Y-63301137D01*
X134065957Y-63341427D01*
X133988027Y-63405430D01*
X133894650Y-63481064D01*
X133791557Y-63563749D01*
X133684478Y-63648911D01*
X133579144Y-63731971D01*
X133483458Y-63806667D01*
X133401631Y-63870536D01*
X133326978Y-63929544D01*
X133262025Y-63981638D01*
X133209295Y-64024763D01*
X133171312Y-64056866D01*
X133150602Y-64075892D01*
X133147490Y-64080000D01*
X133152178Y-64099256D01*
X133165937Y-64136836D01*
X133186684Y-64188090D01*
X133212332Y-64248370D01*
X133240799Y-64313028D01*
X133269997Y-64377416D01*
X133297844Y-64436884D01*
X133322255Y-64486784D01*
X133341144Y-64522468D01*
X133352427Y-64539287D01*
X133353782Y-64540000D01*
X133371227Y-64538165D01*
X133410949Y-64533034D01*
X133468839Y-64525168D01*
X133540790Y-64515128D01*
X133622691Y-64503477D01*
X133652461Y-64499192D01*
X133736403Y-64487328D01*
X133811420Y-64477207D01*
X133873508Y-64469331D01*
X133918659Y-64464201D01*
X133942870Y-64462317D01*
X133945679Y-64462526D01*
X133938389Y-64471038D01*
X133912168Y-64492620D01*
X133869935Y-64525053D01*
X133814609Y-64566120D01*
X133749108Y-64613602D01*
X133712124Y-64640000D01*
X133641637Y-64690691D01*
X133579067Y-64736904D01*
X133527525Y-64776239D01*
X133490126Y-64806297D01*
X133469982Y-64824680D01*
X133467353Y-64828681D01*
X133472171Y-64853087D01*
X133485757Y-64890029D01*
X133504691Y-64932498D01*
X133525555Y-64973481D01*
X133544928Y-65005968D01*
X133559390Y-65022948D01*
X133562598Y-65023940D01*
X133583762Y-65018224D01*
X133621138Y-65006133D01*
X133658498Y-64993162D01*
X133782637Y-64962492D01*
X133912518Y-64955404D01*
X134043277Y-64971014D01*
X134170051Y-65008435D01*
X134287977Y-65066783D01*
X134365345Y-65121807D01*
X134439028Y-65182467D01*
X135022847Y-65100952D01*
X135171363Y-65080204D01*
X135295629Y-65062783D01*
X135397806Y-65048336D01*
X135480055Y-65036509D01*
X135544537Y-65026948D01*
X135593415Y-65019300D01*
X135628848Y-65013212D01*
X135652999Y-65008330D01*
X135668028Y-65004300D01*
X135676097Y-65000769D01*
X135679366Y-64997383D01*
X135679998Y-64993789D01*
X135680000Y-64993450D01*
X135674953Y-64978023D01*
X135661007Y-64942538D01*
X135639949Y-64891369D01*
X135613570Y-64828889D01*
X135594515Y-64784509D01*
X135553085Y-64688843D01*
X135520605Y-64614959D01*
X135495490Y-64560145D01*
X135476156Y-64521687D01*
X135461017Y-64496871D01*
X135448488Y-64482982D01*
X135436985Y-64477308D01*
X135424922Y-64477133D01*
X135415922Y-64478705D01*
X135383668Y-64484335D01*
X135332333Y-64492340D01*
X135266112Y-64502149D01*
X135189197Y-64513190D01*
X135105783Y-64524891D01*
X135020062Y-64536680D01*
X134936228Y-64547985D01*
X134858475Y-64558233D01*
X134790996Y-64566853D01*
X134737984Y-64573273D01*
X134703634Y-64576920D01*
X134692259Y-64577420D01*
X134699446Y-64568954D01*
X134725820Y-64547038D01*
X134768806Y-64513633D01*
X134825826Y-64470698D01*
X134894305Y-64420191D01*
X134971664Y-64364073D01*
X134992467Y-64349126D01*
X135305055Y-64124958D01*
X135258368Y-64015812D01*
X135231584Y-63952975D01*
X135203605Y-63886972D01*
X135179856Y-63830611D01*
X135176807Y-63823334D01*
X135155410Y-63776685D01*
X135137806Y-63750756D01*
X135120270Y-63740683D01*
X135112981Y-63740000D01*
X135092580Y-63741850D01*
X135049481Y-63747071D01*
X134987370Y-63755171D01*
X134909933Y-63765658D01*
X134820859Y-63778040D01*
X134723833Y-63791825D01*
X134713151Y-63793360D01*
X134617029Y-63807013D01*
X134529849Y-63819058D01*
X134454996Y-63829054D01*
X134395855Y-63836560D01*
X134355810Y-63841138D01*
X134338249Y-63842345D01*
X134337760Y-63842205D01*
X134346505Y-63832948D01*
X134373427Y-63808900D01*
X134416062Y-63772157D01*
X134471946Y-63724815D01*
X134538617Y-63668969D01*
X134613612Y-63606714D01*
X134645587Y-63580324D01*
X134734765Y-63506615D01*
X134805209Y-63447723D01*
X134858945Y-63401726D01*
X134897999Y-63366706D01*
X134924399Y-63340743D01*
X134940170Y-63321916D01*
X134947340Y-63308306D01*
X134947934Y-63297992D01*
X134946966Y-63294813D01*
X134938182Y-63273656D01*
X134920720Y-63232695D01*
X134896572Y-63176563D01*
X134867732Y-63109894D01*
X134843162Y-63053334D01*
X134813459Y-62985024D01*
X134775501Y-62897647D01*
X134731635Y-62796605D01*
X134684204Y-62687301D01*
X134635554Y-62575137D01*
X134588028Y-62465515D01*
X134579860Y-62446667D01*
X134536382Y-62347326D01*
X134494245Y-62252880D01*
X134455120Y-62166934D01*
X134420673Y-62093090D01*
X134392573Y-62034951D01*
X134372488Y-61996120D01*
X134366487Y-61985871D01*
X134296868Y-61900328D01*
X134210717Y-61834560D01*
X134111021Y-61790169D01*
X134000766Y-61768758D01*
X133958754Y-61766984D01*
X133898777Y-61769276D01*
X133841379Y-61777666D01*
X133780837Y-61793832D01*
X133711425Y-61819451D01*
X133627418Y-61856200D01*
X133582330Y-61877289D01*
X133472059Y-61940783D01*
X133385369Y-62015969D01*
X133321313Y-62104070D01*
X133278944Y-62206312D01*
X133260783Y-62293364D01*
X133257439Y-62335059D01*
X133259639Y-62377972D01*
X133268479Y-62426043D01*
X133285059Y-62483208D01*
X133310477Y-62553407D01*
X133345831Y-62640578D01*
X133379760Y-62720000D01*
X133418882Y-62810724D01*
X133448243Y-62880551D01*
X133468832Y-62932988D01*
X133481641Y-62971540D01*
X133487658Y-62999715D01*
X133487875Y-63021018D01*
X133483281Y-63038956D01*
X133474911Y-63056949D01*
X133441896Y-63095037D01*
X133397099Y-63113661D01*
X133348529Y-63111230D01*
X133308535Y-63090000D01*
X133297170Y-63074527D01*
X133278900Y-63041073D01*
X133253364Y-62988826D01*
X133220203Y-62916973D01*
X133179053Y-62824699D01*
X133129556Y-62711194D01*
X133071349Y-62575642D01*
X133004071Y-62417231D01*
X132927361Y-62235148D01*
X132899691Y-62169191D01*
X132808541Y-61951714D01*
X132833401Y-61909191D01*
X132849306Y-61882631D01*
X132875977Y-61838783D01*
X132910130Y-61783022D01*
X132948476Y-61720724D01*
X132962342Y-61698270D01*
X133066424Y-61529872D01*
X133156545Y-61548662D01*
X133190004Y-61555688D01*
X133246030Y-61567511D01*
X133321106Y-61583388D01*
X133411714Y-61602572D01*
X133514337Y-61624320D01*
X133625458Y-61647886D01*
X133741560Y-61672526D01*
X133750952Y-61674520D01*
X133863542Y-61698232D01*
X133968240Y-61719910D01*
X134062117Y-61738977D01*
X134142239Y-61754852D01*
X134205676Y-61766956D01*
X134249496Y-61774712D01*
X134270768Y-61777539D01*
X134272060Y-61777461D01*
X134273050Y-61764097D01*
X134262292Y-61727292D01*
X134239747Y-61666939D01*
X134205374Y-61582932D01*
X134162766Y-61483498D01*
X134122882Y-61392052D01*
X134091856Y-61322036D01*
X134067938Y-61270410D01*
X134049381Y-61234136D01*
X134034437Y-61210176D01*
X134021358Y-61195491D01*
X134008397Y-61187042D01*
X133993805Y-61181791D01*
X133988324Y-61180239D01*
X133949256Y-61171043D01*
X133920258Y-61171268D01*
X133894554Y-61183999D01*
X133865367Y-61212319D01*
X133832630Y-61251109D01*
X133752525Y-61334592D01*
X133659138Y-61408386D01*
X133560265Y-61466979D01*
X133480837Y-61499731D01*
X133425302Y-61515810D01*
X133378348Y-61523812D01*
X133327628Y-61525064D01*
X133274127Y-61521951D01*
X133115589Y-61497247D01*
X132968682Y-61448758D01*
X132834238Y-61377080D01*
X132713090Y-61282811D01*
X132606070Y-61166548D01*
X132514012Y-61028887D01*
X132470823Y-60945882D01*
X132448356Y-60900278D01*
X132429794Y-60865731D01*
X132418240Y-60847911D01*
X132416514Y-60846667D01*
X132402066Y-60844004D01*
X132365028Y-60836498D01*
X132308889Y-60824877D01*
X132237137Y-60809866D01*
X132153260Y-60792192D01*
X132064289Y-60773334D01*
X131971301Y-60753715D01*
X131886391Y-60736077D01*
X131813200Y-60721153D01*
X131755369Y-60709678D01*
X131716539Y-60702385D01*
X131700607Y-60700000D01*
X131698517Y-60710612D01*
X131394605Y-60710612D01*
X131360784Y-60631116D01*
X131324986Y-60546576D01*
X131298139Y-60482672D01*
X131280748Y-60440579D01*
X131273317Y-60421471D01*
X131273080Y-60420409D01*
X131285988Y-60413601D01*
X131320826Y-60397436D01*
X131375012Y-60373057D01*
X131445964Y-60341605D01*
X131531099Y-60304222D01*
X131627834Y-60262051D01*
X131733588Y-60216232D01*
X131785654Y-60193770D01*
X132293333Y-59975050D01*
X132294177Y-59834192D01*
X132295658Y-59754252D01*
X132298875Y-59663483D01*
X132303228Y-59577618D01*
X132304933Y-59551305D01*
X132310176Y-59485672D01*
X132316119Y-59440086D01*
X132324379Y-59407939D01*
X132336575Y-59382627D01*
X132351528Y-59361181D01*
X132388142Y-59323581D01*
X132432807Y-59290802D01*
X132443123Y-59285074D01*
X132511699Y-59263980D01*
X132583074Y-59265721D01*
X132650893Y-59288258D01*
X132708803Y-59329552D01*
X132748175Y-59382958D01*
X132755821Y-59399331D01*
X132761932Y-59417280D01*
X132766706Y-59439912D01*
X132770341Y-59470330D01*
X132773035Y-59511642D01*
X132774984Y-59566951D01*
X132776387Y-59639362D01*
X132777441Y-59731982D01*
X132778343Y-59847915D01*
X132778414Y-59858281D01*
X132779578Y-59986430D01*
X132781247Y-60091432D01*
X132783594Y-60176803D01*
X132786788Y-60246062D01*
X132790999Y-60302726D01*
X132796397Y-60350312D01*
X132803152Y-60392336D01*
X132804606Y-60400000D01*
X132839507Y-60553706D01*
X132880220Y-60682990D01*
X132927757Y-60789663D01*
X132983131Y-60875535D01*
X133047352Y-60942416D01*
X133121434Y-60992116D01*
X133141081Y-61001822D01*
X133223007Y-61032043D01*
X133295493Y-61043199D01*
X133354982Y-61034873D01*
X133369674Y-61028559D01*
X133410402Y-60998779D01*
X133459153Y-60949317D01*
X133512733Y-60884682D01*
X133567949Y-60809387D01*
X133621605Y-60727941D01*
X133670508Y-60644854D01*
X133711462Y-60564637D01*
X133732008Y-60516937D01*
X133763908Y-60423312D01*
X133795500Y-60307169D01*
X133826056Y-60172653D01*
X133854847Y-60023911D01*
X133881146Y-59865086D01*
X133904224Y-59700325D01*
X133923353Y-59533773D01*
X133937804Y-59369575D01*
X133940567Y-59329891D01*
X133947781Y-59250751D01*
X133958213Y-59191972D01*
X133973075Y-59147322D01*
X133978113Y-59136666D01*
X134023489Y-59074054D01*
X134083709Y-59031877D01*
X134154481Y-59011993D01*
X134231518Y-59016262D01*
G37*
G36*
X135466667Y-56173821D02*
G01*
X135568451Y-56176537D01*
X135654489Y-56185416D01*
X135733460Y-56202523D01*
X135814046Y-56229926D01*
X135904930Y-56269693D01*
X135940000Y-56286535D01*
X136067522Y-56357451D01*
X136176488Y-56438270D01*
X136274756Y-56535235D01*
X136318912Y-56587451D01*
X136412558Y-56719424D01*
X136481082Y-56852742D01*
X136525900Y-56991334D01*
X136548431Y-57139132D01*
X136551842Y-57233334D01*
X136550839Y-57305835D01*
X136547201Y-57361447D01*
X136539449Y-57409922D01*
X136526107Y-57461013D01*
X136509416Y-57513334D01*
X136484054Y-57583347D01*
X136453561Y-57658355D01*
X136423400Y-57725127D01*
X136414923Y-57742181D01*
X136362532Y-57844361D01*
X136464599Y-57907315D01*
X136643265Y-58030706D01*
X136821141Y-58179741D01*
X136997195Y-58353396D01*
X137170394Y-58550649D01*
X137339704Y-58770476D01*
X137347531Y-58781323D01*
X137411655Y-58872617D01*
X137469991Y-58960949D01*
X137523495Y-59048723D01*
X137573123Y-59138342D01*
X137619831Y-59232209D01*
X137664574Y-59332727D01*
X137708308Y-59442300D01*
X137751990Y-59563332D01*
X137796575Y-59698225D01*
X137843018Y-59849382D01*
X137892276Y-60019208D01*
X137945305Y-60210106D01*
X138003061Y-60424478D01*
X138007146Y-60439825D01*
X138044904Y-60582706D01*
X138076248Y-60703674D01*
X138102041Y-60806474D01*
X138123141Y-60894850D01*
X138140410Y-60972544D01*
X138154707Y-61043300D01*
X138166895Y-61110862D01*
X138177833Y-61178974D01*
X138179307Y-61188724D01*
X138192466Y-61287412D01*
X138205772Y-61407859D01*
X138218797Y-61545165D01*
X138231113Y-61694428D01*
X138242294Y-61850748D01*
X138251911Y-62009222D01*
X138253569Y-62040000D01*
X138256564Y-62107264D01*
X138259481Y-62192374D01*
X138262278Y-62292094D01*
X138264912Y-62403187D01*
X138267343Y-62522414D01*
X138269528Y-62646539D01*
X138271426Y-62772324D01*
X138272994Y-62896532D01*
X138274190Y-63015925D01*
X138274974Y-63127266D01*
X138275302Y-63227318D01*
X138275133Y-63312844D01*
X138274425Y-63380606D01*
X138273137Y-63427366D01*
X138271769Y-63446667D01*
X138237029Y-63707529D01*
X138201374Y-63955434D01*
X138165193Y-64188084D01*
X138128872Y-64403181D01*
X138092798Y-64598426D01*
X138057360Y-64771522D01*
X138024639Y-64913334D01*
X137998586Y-65011923D01*
X137964947Y-65128778D01*
X137925823Y-65257322D01*
X137883313Y-65390975D01*
X137839518Y-65523160D01*
X137796539Y-65647297D01*
X137756476Y-65756808D01*
X137749502Y-65775068D01*
X137674126Y-65959912D01*
X137595065Y-66130519D01*
X137509841Y-66290467D01*
X137415974Y-66443334D01*
X137310986Y-66592701D01*
X137192399Y-66742145D01*
X137057734Y-66895245D01*
X136904512Y-67055581D01*
X136771866Y-67186667D01*
X136586673Y-67358359D01*
X136410825Y-67505831D01*
X136244506Y-67628943D01*
X136087899Y-67727557D01*
X136000564Y-67773978D01*
X135893195Y-67820758D01*
X135764191Y-67866692D01*
X135618578Y-67910355D01*
X135461382Y-67950320D01*
X135297627Y-67985162D01*
X135186667Y-68004942D01*
X135072405Y-68023078D01*
X134972229Y-68037357D01*
X134880219Y-68048215D01*
X134790455Y-68056091D01*
X134697017Y-68061423D01*
X134593985Y-68064646D01*
X134475440Y-68066200D01*
X134353333Y-68066534D01*
X134274623Y-68066348D01*
X134234263Y-68066252D01*
X134137143Y-68065332D01*
X134057259Y-68063525D01*
X133989896Y-68060582D01*
X133930341Y-68056257D01*
X133873880Y-68050300D01*
X133815798Y-68042464D01*
X133773333Y-68035991D01*
X133597190Y-68007035D01*
X133423306Y-67976078D01*
X133259063Y-67944501D01*
X133111841Y-67913684D01*
X133073333Y-67905075D01*
X132844107Y-67844434D01*
X132601651Y-67764361D01*
X132349079Y-67666499D01*
X132089502Y-67552489D01*
X131826034Y-67423972D01*
X131561785Y-67282592D01*
X131299868Y-67129988D01*
X131043396Y-66967804D01*
X130795481Y-66797680D01*
X130559235Y-66621259D01*
X130406667Y-66498389D01*
X130328582Y-66430589D01*
X130239447Y-66348430D01*
X130143777Y-66256475D01*
X130046090Y-66159285D01*
X129950901Y-66061424D01*
X129862725Y-65967453D01*
X129786079Y-65881934D01*
X129728581Y-65813334D01*
X129663351Y-65729016D01*
X129594173Y-65635094D01*
X129525247Y-65537620D01*
X129460769Y-65442649D01*
X129404938Y-65356235D01*
X129362530Y-65285457D01*
X129320472Y-65210913D01*
X129043569Y-65202250D01*
X128824622Y-65192248D01*
X128628305Y-65175973D01*
X128451087Y-65152298D01*
X128289431Y-65120098D01*
X128139805Y-65078246D01*
X127998675Y-65025616D01*
X127862507Y-64961081D01*
X127727766Y-64883515D01*
X127590918Y-64791792D01*
X127468054Y-64700109D01*
X127303217Y-64561792D01*
X127138660Y-64404272D01*
X126980779Y-64234300D01*
X126835970Y-64058630D01*
X126750393Y-63942460D01*
X126618298Y-63736935D01*
X126503391Y-63523471D01*
X126406595Y-63305026D01*
X126328834Y-63084558D01*
X126271032Y-62865022D01*
X126234113Y-62649377D01*
X126218999Y-62440579D01*
X126224889Y-62260000D01*
X126250523Y-62063028D01*
X126291073Y-61887857D01*
X126346753Y-61734044D01*
X126417775Y-61601142D01*
X126504352Y-61488707D01*
X126606700Y-61396292D01*
X126654798Y-61363113D01*
X126738001Y-61315721D01*
X126814048Y-61285887D01*
X126892797Y-61270634D01*
X126973333Y-61266910D01*
X127034581Y-61268347D01*
X127080520Y-61273943D01*
X127122449Y-61286095D01*
X127171668Y-61307200D01*
X127178579Y-61310438D01*
X127281753Y-61366083D01*
X127379751Y-61434511D01*
X127478430Y-61520144D01*
X127546927Y-61588388D01*
X127606596Y-61652850D01*
X127663401Y-61719603D01*
X127720186Y-61792526D01*
X127779796Y-61875500D01*
X127845077Y-61972406D01*
X127918873Y-62087122D01*
X127956291Y-62146667D01*
X128102133Y-62373463D01*
X128241102Y-62575777D01*
X128374048Y-62754651D01*
X128501819Y-62911128D01*
X128625262Y-63046250D01*
X128745227Y-63161059D01*
X128854592Y-63250648D01*
X128884615Y-63272307D01*
X128904744Y-63285149D01*
X128908472Y-63286667D01*
X128909800Y-63274423D01*
X128908311Y-63241670D01*
X128904344Y-63194381D01*
X128901847Y-63170000D01*
X128898787Y-63128408D01*
X128895918Y-63064287D01*
X128893339Y-62981774D01*
X128891148Y-62885006D01*
X128889445Y-62778122D01*
X128888330Y-62665258D01*
X128887966Y-62590683D01*
X128887574Y-62467462D01*
X128887058Y-62368255D01*
X128886259Y-62290408D01*
X128885020Y-62231270D01*
X128883183Y-62188185D01*
X128880589Y-62158503D01*
X128877082Y-62139569D01*
X128872503Y-62128732D01*
X128866693Y-62123337D01*
X128860000Y-62120865D01*
X128824818Y-62114962D01*
X128800000Y-62113395D01*
X128767527Y-62109792D01*
X128715387Y-62100288D01*
X128649562Y-62086278D01*
X128576034Y-62069157D01*
X128500786Y-62050321D01*
X128429800Y-62031163D01*
X128369058Y-62013081D01*
X128366918Y-62012397D01*
X128218750Y-61955884D01*
X128060051Y-61878903D01*
X127893978Y-61783871D01*
X127723686Y-61673206D01*
X127552332Y-61549326D01*
X127383072Y-61414648D01*
X127219061Y-61271592D01*
X127063455Y-61122574D01*
X126919411Y-60970012D01*
X126790084Y-60816325D01*
X126767029Y-60786667D01*
X126638690Y-60614182D01*
X126528911Y-60454851D01*
X126435757Y-60304765D01*
X126357296Y-60160014D01*
X126291594Y-60016689D01*
X126236718Y-59870880D01*
X126190735Y-59718678D01*
X126151711Y-59556175D01*
X126146657Y-59532207D01*
X126123175Y-59399304D01*
X126111784Y-59280763D01*
X126111820Y-59253910D01*
X126592203Y-59253910D01*
X126604480Y-59368919D01*
X126627951Y-59494754D01*
X126661184Y-59625497D01*
X126702751Y-59755230D01*
X126751221Y-59878033D01*
X126783902Y-59947679D01*
X126840320Y-60050422D01*
X126911882Y-60166138D01*
X126994623Y-60289198D01*
X127084578Y-60413976D01*
X127177783Y-60534843D01*
X127270273Y-60646171D01*
X127298973Y-60678754D01*
X127396739Y-60781380D01*
X127510413Y-60889572D01*
X127635480Y-60999767D01*
X127767422Y-61108402D01*
X127901724Y-61211915D01*
X128033868Y-61306744D01*
X128159338Y-61389326D01*
X128273618Y-61456098D01*
X128305785Y-61472889D01*
X128366060Y-61500273D01*
X128437729Y-61527983D01*
X128516802Y-61554994D01*
X128599289Y-61580280D01*
X128681201Y-61602816D01*
X128758548Y-61621576D01*
X128827340Y-61635537D01*
X128883586Y-61643671D01*
X128923297Y-61644955D01*
X128942484Y-61638362D01*
X128943316Y-61636717D01*
X128963995Y-61597466D01*
X128998054Y-61553495D01*
X129036941Y-61515249D01*
X129052289Y-61503651D01*
X129096625Y-61482052D01*
X129150731Y-61473712D01*
X129169300Y-61473334D01*
X129240745Y-61480665D01*
X129298015Y-61505152D01*
X129348391Y-61548810D01*
X129373830Y-61579770D01*
X129391576Y-61612035D01*
X129402236Y-61650205D01*
X129406416Y-61698883D01*
X129404720Y-61762668D01*
X129397755Y-61846161D01*
X129393257Y-61889584D01*
X129386884Y-61960663D01*
X129380615Y-62051978D01*
X129374781Y-62157101D01*
X129369713Y-62269602D01*
X129365743Y-62383053D01*
X129363761Y-62461268D01*
X129361514Y-62661798D01*
X129363909Y-62841548D01*
X129371416Y-63006076D01*
X129384505Y-63160940D01*
X129403647Y-63311700D01*
X129429312Y-63463912D01*
X129461971Y-63623136D01*
X129462215Y-63624239D01*
X129477095Y-63694388D01*
X129485853Y-63744661D01*
X129489037Y-63781002D01*
X129487194Y-63809355D01*
X129481484Y-63833639D01*
X129447027Y-63906899D01*
X129394471Y-63961374D01*
X129326298Y-63995238D01*
X129246433Y-64006667D01*
X129178334Y-63997873D01*
X129120603Y-63969204D01*
X129070498Y-63922327D01*
X129032798Y-63889234D01*
X128989118Y-63863937D01*
X128978518Y-63859923D01*
X128897122Y-63827865D01*
X128803598Y-63781333D01*
X128705078Y-63724300D01*
X128608693Y-63660738D01*
X128568674Y-63631633D01*
X128419663Y-63508168D01*
X128266538Y-63358706D01*
X128109552Y-63183555D01*
X127948961Y-62983024D01*
X127785021Y-62757421D01*
X127617985Y-62507056D01*
X127546185Y-62393334D01*
X127444962Y-62235554D01*
X127352022Y-62101530D01*
X127266346Y-61990025D01*
X127186910Y-61899806D01*
X127112694Y-61829636D01*
X127042676Y-61778281D01*
X127032445Y-61772108D01*
X126995760Y-61751684D01*
X126971643Y-61743823D01*
X126949935Y-61747147D01*
X126925973Y-61757646D01*
X126870708Y-61797810D01*
X126821399Y-61860838D01*
X126778995Y-61943401D01*
X126744446Y-62042169D01*
X126718701Y-62153814D01*
X126702710Y-62275006D01*
X126697422Y-62402417D01*
X126703788Y-62532717D01*
X126704062Y-62535550D01*
X126739648Y-62764647D01*
X126800969Y-62992635D01*
X126887106Y-63217624D01*
X126997139Y-63437722D01*
X127130150Y-63651036D01*
X127285218Y-63855676D01*
X127418864Y-64005928D01*
X127586927Y-64172447D01*
X127751755Y-64315603D01*
X127912488Y-64434749D01*
X128068265Y-64529239D01*
X128195920Y-64589599D01*
X128313037Y-64629529D01*
X128451985Y-64663469D01*
X128608472Y-64690783D01*
X128778206Y-64710837D01*
X128956895Y-64722997D01*
X129123205Y-64726667D01*
X129189669Y-64726031D01*
X129235524Y-64723510D01*
X129266810Y-64718186D01*
X129289569Y-64709141D01*
X129305160Y-64699006D01*
X129363426Y-64671405D01*
X129430718Y-64663692D01*
X129499568Y-64674802D01*
X129562508Y-64703672D01*
X129606225Y-64741907D01*
X129625445Y-64769426D01*
X129652727Y-64814574D01*
X129684400Y-64871030D01*
X129716015Y-64930949D01*
X129845933Y-65158780D01*
X130001632Y-65384630D01*
X130182248Y-65607623D01*
X130386919Y-65826877D01*
X130614781Y-66041515D01*
X130864972Y-66250657D01*
X131136627Y-66453424D01*
X131358748Y-66603918D01*
X131613137Y-66761718D01*
X131875980Y-66910411D01*
X132142460Y-67047653D01*
X132407759Y-67171098D01*
X132667060Y-67278398D01*
X132915547Y-67367209D01*
X132946667Y-67377230D01*
X133046686Y-67405963D01*
X133168114Y-67435868D01*
X133305775Y-67465998D01*
X133454495Y-67495403D01*
X133609101Y-67523136D01*
X133764418Y-67548249D01*
X133915271Y-67569793D01*
X134056486Y-67586819D01*
X134129782Y-67594059D01*
X134274623Y-67601832D01*
X134433989Y-67601223D01*
X134603678Y-67592879D01*
X134779488Y-67577447D01*
X134957216Y-67555573D01*
X135132660Y-67527905D01*
X135301618Y-67495089D01*
X135459887Y-67457773D01*
X135603266Y-67416601D01*
X135727550Y-67372223D01*
X135808846Y-67335639D01*
X135901592Y-67282203D01*
X136007153Y-67210263D01*
X136122314Y-67122625D01*
X136243861Y-67022096D01*
X136368581Y-66911485D01*
X136493260Y-66793598D01*
X136614684Y-66671242D01*
X136729639Y-66547226D01*
X136788367Y-66480000D01*
X136894599Y-66350825D01*
X136985641Y-66228689D01*
X137065088Y-66107489D01*
X137136533Y-65981122D01*
X137203572Y-65843483D01*
X137269799Y-65688469D01*
X137301078Y-65609396D01*
X137337978Y-65510247D01*
X137378263Y-65395245D01*
X137419815Y-65271014D01*
X137460514Y-65144179D01*
X137498243Y-65021364D01*
X137530880Y-64909191D01*
X137556309Y-64814285D01*
X137559307Y-64802206D01*
X137586125Y-64685166D01*
X137614887Y-64545822D01*
X137644866Y-64388404D01*
X137675337Y-64217141D01*
X137705576Y-64036262D01*
X137734857Y-63849997D01*
X137762456Y-63662574D01*
X137787646Y-63478223D01*
X137791743Y-63446667D01*
X137793498Y-63417798D01*
X137794653Y-63365486D01*
X137795247Y-63292944D01*
X137795323Y-63203387D01*
X137794921Y-63100031D01*
X137794083Y-62986091D01*
X137792851Y-62864780D01*
X137791264Y-62739315D01*
X137789365Y-62612909D01*
X137787195Y-62488778D01*
X137784795Y-62370137D01*
X137782206Y-62260200D01*
X137779470Y-62162182D01*
X137776627Y-62079299D01*
X137773720Y-62014764D01*
X137773269Y-62006667D01*
X137763119Y-61846203D01*
X137751537Y-61691095D01*
X137738920Y-61545579D01*
X137725663Y-61413892D01*
X137712164Y-61300270D01*
X137698819Y-61208950D01*
X137698436Y-61206667D01*
X137682319Y-61121711D01*
X137658764Y-61013540D01*
X137628320Y-60884381D01*
X137591534Y-60736462D01*
X137548954Y-60572011D01*
X137501128Y-60393255D01*
X137473802Y-60293334D01*
X137418759Y-60097871D01*
X137367234Y-59925373D01*
X137317735Y-59772612D01*
X137268770Y-59636361D01*
X137218847Y-59513393D01*
X137166474Y-59400479D01*
X137110160Y-59294394D01*
X137048412Y-59191909D01*
X136979739Y-59089797D01*
X136902649Y-58984831D01*
X136820297Y-58879579D01*
X136681713Y-58715712D01*
X136545290Y-58574268D01*
X136406556Y-58451842D01*
X136261042Y-58345027D01*
X136104278Y-58250419D01*
X135931792Y-58164610D01*
X135904733Y-58152953D01*
X135816890Y-58115110D01*
X135722830Y-58078115D01*
X135620052Y-58040318D01*
X135514464Y-58003672D01*
X135411973Y-57970135D01*
X135318490Y-57941659D01*
X135239922Y-57920200D01*
X135200000Y-57911012D01*
X135148721Y-57904034D01*
X135075462Y-57898882D01*
X134984844Y-57895519D01*
X134881487Y-57893906D01*
X134770013Y-57894006D01*
X134655043Y-57895780D01*
X134541197Y-57899191D01*
X134433097Y-57904201D01*
X134335365Y-57910772D01*
X134253333Y-57918780D01*
X133851411Y-57977471D01*
X133461556Y-58056420D01*
X133082011Y-58156356D01*
X132711022Y-58278009D01*
X132346830Y-58422108D01*
X131987679Y-58589382D01*
X131631814Y-58780561D01*
X131277476Y-58996372D01*
X130922910Y-59237546D01*
X130723282Y-59384193D01*
X130552942Y-59515232D01*
X130403661Y-59636154D01*
X130273029Y-59749503D01*
X130158638Y-59857822D01*
X130058078Y-59963656D01*
X129968938Y-60069548D01*
X129888810Y-60178043D01*
X129815284Y-60291685D01*
X129745949Y-60413017D01*
X129742190Y-60420000D01*
X129685889Y-60531435D01*
X129638516Y-60640861D01*
X129598120Y-60754248D01*
X129562748Y-60877566D01*
X129530449Y-61016783D01*
X129505415Y-61144136D01*
X129479413Y-61222996D01*
X129435881Y-61284873D01*
X129378501Y-61327812D01*
X129310956Y-61349858D01*
X129236928Y-61349056D01*
X129164021Y-61325387D01*
X129106540Y-61284517D01*
X129071250Y-61237649D01*
X129055551Y-61209352D01*
X129045869Y-61184691D01*
X129041279Y-61156672D01*
X129040859Y-61118303D01*
X129043687Y-61062589D01*
X129045136Y-61039806D01*
X129054061Y-60901753D01*
X128948627Y-60821493D01*
X128900093Y-60781137D01*
X128838246Y-60724531D01*
X128767042Y-60655740D01*
X128690441Y-60578832D01*
X128612399Y-60497873D01*
X128536873Y-60416930D01*
X128467822Y-60340071D01*
X128409202Y-60271360D01*
X128389244Y-60246667D01*
X128326616Y-60163296D01*
X128267393Y-60074934D01*
X128209822Y-59978255D01*
X128152153Y-59869936D01*
X128092633Y-59746651D01*
X128029511Y-59605077D01*
X127961036Y-59441889D01*
X127946539Y-59406354D01*
X127886222Y-59260163D01*
X127832736Y-59136135D01*
X127784338Y-59031182D01*
X127739288Y-58942215D01*
X127695844Y-58866146D01*
X127652266Y-58799887D01*
X127606810Y-58740350D01*
X127557737Y-58684446D01*
X127514439Y-58640000D01*
X127460284Y-58590924D01*
X127400919Y-58544147D01*
X127346375Y-58507425D01*
X127333333Y-58500000D01*
X127287527Y-58476611D01*
X127250627Y-58462666D01*
X127212326Y-58455759D01*
X127162317Y-58453486D01*
X127133333Y-58453334D01*
X127073905Y-58454414D01*
X127031497Y-58459022D01*
X126996506Y-58469207D01*
X126959326Y-58487020D01*
X126948940Y-58492696D01*
X126883925Y-58537797D01*
X126816855Y-58599710D01*
X126755420Y-58670424D01*
X126707312Y-58741930D01*
X126704156Y-58747655D01*
X126670719Y-58822194D01*
X126640052Y-58913946D01*
X126614740Y-59013458D01*
X126597371Y-59111276D01*
X126592548Y-59155646D01*
X126592203Y-59253910D01*
X126111820Y-59253910D01*
X126111934Y-59167468D01*
X126119341Y-59080000D01*
X126152429Y-58885659D01*
X126204405Y-58705868D01*
X126274509Y-58542085D01*
X126361980Y-58395768D01*
X126466057Y-58268374D01*
X126585979Y-58161361D01*
X126606830Y-58146054D01*
X126743063Y-58063318D01*
X126882418Y-58006387D01*
X127023657Y-57974760D01*
X127165542Y-57967932D01*
X127306838Y-57985403D01*
X127446306Y-58026669D01*
X127582711Y-58091227D01*
X127714814Y-58178575D01*
X127841379Y-58288210D01*
X127961169Y-58419630D01*
X128072947Y-58572333D01*
X128175475Y-58745814D01*
X128200007Y-58793349D01*
X128226311Y-58848282D01*
X128259747Y-58921943D01*
X128297657Y-59008255D01*
X128337383Y-59101141D01*
X128376265Y-59194525D01*
X128386794Y-59220313D01*
X128452099Y-59377890D01*
X128512066Y-59514286D01*
X128569448Y-59633730D01*
X128627000Y-59740450D01*
X128687475Y-59838675D01*
X128753627Y-59932633D01*
X128828210Y-60026553D01*
X128913978Y-60124664D01*
X129013686Y-60231193D01*
X129108662Y-60328691D01*
X129202605Y-60423947D01*
X129295450Y-60245307D01*
X129374178Y-60100982D01*
X129455620Y-59967072D01*
X129542140Y-59841021D01*
X129636102Y-59720271D01*
X129739872Y-59602265D01*
X129855815Y-59484445D01*
X129986294Y-59364253D01*
X130133676Y-59239134D01*
X130300325Y-59106529D01*
X130462183Y-58983559D01*
X130808877Y-58735231D01*
X131151395Y-58511455D01*
X131492230Y-58310963D01*
X131833872Y-58132487D01*
X132178813Y-57974759D01*
X132529541Y-57836511D01*
X132888550Y-57716474D01*
X133036825Y-57672765D01*
X133201627Y-57628697D01*
X133376275Y-57586916D01*
X133556436Y-57548157D01*
X133737783Y-57513155D01*
X133915983Y-57482645D01*
X134086708Y-57457363D01*
X134245628Y-57438044D01*
X134388412Y-57425422D01*
X134510730Y-57420233D01*
X134524792Y-57420143D01*
X134616251Y-57420000D01*
X134607892Y-57370000D01*
X134597053Y-57282805D01*
X134591116Y-57185740D01*
X134590448Y-57120000D01*
X135073333Y-57120000D01*
X135073926Y-57187065D01*
X135076556Y-57235043D01*
X135082497Y-57271504D01*
X135093028Y-57304016D01*
X135109422Y-57340150D01*
X135110976Y-57343325D01*
X135140423Y-57394538D01*
X135166645Y-57421001D01*
X135177643Y-57425229D01*
X135289854Y-57446639D01*
X135386215Y-57467981D01*
X135477396Y-57492004D01*
X135574065Y-57521457D01*
X135654739Y-57548138D01*
X135728642Y-57572676D01*
X135795639Y-57594046D01*
X135850871Y-57610765D01*
X135889477Y-57621352D01*
X135904733Y-57624387D01*
X135923581Y-57621562D01*
X135941225Y-57606942D01*
X135961910Y-57575853D01*
X135981409Y-57540000D01*
X136033196Y-57428541D01*
X136064824Y-57329064D01*
X136077110Y-57237087D01*
X136070871Y-57148127D01*
X136060999Y-57103147D01*
X136019073Y-56995552D01*
X135955094Y-56897237D01*
X135872908Y-56811123D01*
X135776359Y-56740131D01*
X135669293Y-56687183D01*
X135555555Y-56655200D01*
X135460198Y-56646667D01*
X135366356Y-56659390D01*
X135280732Y-56696845D01*
X135204816Y-56757958D01*
X135140096Y-56841657D01*
X135108338Y-56900000D01*
X135092473Y-56936050D01*
X135082240Y-56969279D01*
X135076440Y-57007228D01*
X135073872Y-57057437D01*
X135073333Y-57120000D01*
X134590448Y-57120000D01*
X134590115Y-57087285D01*
X134594082Y-56995921D01*
X134603049Y-56920128D01*
X134606096Y-56904515D01*
X134648327Y-56764267D01*
X134711417Y-56630821D01*
X134792408Y-56508191D01*
X134888343Y-56400392D01*
X134996264Y-56311439D01*
X135080000Y-56261178D01*
X135156013Y-56224733D01*
X135222200Y-56199738D01*
X135287253Y-56184230D01*
X135359864Y-56176245D01*
X135448723Y-56173820D01*
X135466667Y-56173821D01*
G37*
X93074000Y-109915000D02*
X93074000Y-74235000D01*
X93074000Y-74235000D02*
X80154000Y-74235000D01*
X87614000Y-109915000D02*
X93074000Y-109915000D01*
X80154000Y-109915000D02*
X85614000Y-109915000D01*
X80154000Y-74235000D02*
X80154000Y-109915000D01*
X87614000Y-109915000D02*
G75*
G03*
X85614000Y-109915000I-1000000J0D01*
G01*
X119947000Y-148249000D02*
X119947000Y-112569000D01*
X119947000Y-112569000D02*
X107027000Y-112569000D01*
X114487000Y-148249000D02*
X119947000Y-148249000D01*
X107027000Y-148249000D02*
X112487000Y-148249000D01*
X107027000Y-112569000D02*
X107027000Y-148249000D01*
X114487000Y-148249000D02*
G75*
G03*
X112487000Y-148249000I-1000000J0D01*
G01*
X120125000Y-109915000D02*
X120125000Y-74235000D01*
X120125000Y-74235000D02*
X107205000Y-74235000D01*
X114665000Y-109915000D02*
X120125000Y-109915000D01*
X107205000Y-109915000D02*
X112665000Y-109915000D01*
X107205000Y-74235000D02*
X107205000Y-109915000D01*
X114665000Y-109915000D02*
G75*
G03*
X112665000Y-109915000I-1000000J0D01*
G01*
X123569000Y-111625767D02*
X123569000Y-111333233D01*
X124589000Y-111625767D02*
X124589000Y-111333233D01*
M02*
